<?xml version="1.0" encoding="UTF-8"?>
<svg width="221px" height="65px" viewBox="0 0 221 65" version="1.1" xmlns="http://www.w3.org/2000/svg" xmlns:xlink="http://www.w3.org/1999/xlink">
    <!-- Generator: Sketch 50.2 (55047) - http://www.bohemiancoding.com/sketch -->
    <title>boutique-titre-blanc</title>
    <desc>Created with Sketch.</desc>
    <defs></defs>
    <g id="boutique-titre-blanc" stroke="none" stroke-width="1" fill="none" fill-rule="evenodd">
        <path d="M36.89,35.44 L36.89,39.97 L43.07,39.97 C45.26,39.97 46.64,38.92 46.64,37.54 C46.64,36.28 45.89,35.44 43.07,35.44 L36.89,35.44 Z M36.89,48.28 L43.28,48.28 C46.13,48.28 47.45,47.5 47.45,45.94 C47.45,44.5 46.52,43.51 43.37,43.51 L36.89,43.51 L36.89,48.28 Z M32.3,52 L32.3,31.72 L43.55,31.72 C49.22,31.72 51.47,34.54 51.47,37.06 C51.47,38.71 50.45,40.45 48.98,41.35 C50.96,42.28 52.37,43.96 52.37,46.15 C52.37,49.21 49.49,52 43.82,52 L32.3,52 Z M68.09,52.36 C60.2,52.36 55.82,47.32 55.82,41.86 C55.82,36.49 60.2,31.36 68.09,31.36 C75.98,31.36 80.33,36.49 80.33,41.86 C80.33,47.32 75.98,52.36 68.09,52.36 Z M68.09,35.29 C62.84,35.29 60.56,38.59 60.56,41.86 C60.56,45.13 62.84,48.43 68.09,48.43 C73.34,48.43 75.59,45.13 75.59,41.86 C75.59,38.59 73.34,35.29 68.09,35.29 Z M94.85,52.36 C88.22,52.36 84.68,48.73 84.68,44.23 L84.68,31.72 L89.27,31.72 L89.27,43.99 C89.27,46.39 91.01,48.43 94.85,48.43 C98.69,48.43 100.43,46.39 100.43,43.99 L100.43,31.72 L105.02,31.72 L105.02,44.23 C105.02,48.73 101.48,52.36 94.85,52.36 Z M108.62,31.72 L129.41,31.72 L129.41,35.44 L121.31,35.44 L121.31,52 L116.72,52 L116.72,35.44 L108.62,35.44 L108.62,31.72 Z M138.05,31.72 L138.05,52 L133.46,52 L133.46,31.72 L138.05,31.72 Z M155.12,52.36 C147.23,52.36 142.85,47.32 142.85,41.86 C142.85,36.49 147.23,31.36 155.12,31.36 C163.01,31.36 167.36,36.49 167.36,41.86 C167.36,44.77 166.13,47.56 163.79,49.54 L166.04,52 L163.07,54.4 L160.37,51.49 C158.84,52.03 157.1,52.36 155.12,52.36 Z M155.12,35.29 C149.87,35.29 147.59,38.59 147.59,41.86 C147.59,45.13 149.87,48.43 155.12,48.43 C155.93,48.43 156.68,48.34 157.37,48.19 L155.3,45.91 L158.39,43.6 L160.88,46.33 C162.05,45.1 162.62,43.48 162.62,41.86 C162.62,38.59 160.37,35.29 155.12,35.29 Z M181.88,52.36 C175.25,52.36 171.71,48.73 171.71,44.23 L171.71,31.72 L176.3,31.72 L176.3,43.99 C176.3,46.39 178.04,48.43 181.88,48.43 C185.72,48.43 187.46,46.39 187.46,43.99 L187.46,31.72 L192.05,31.72 L192.05,44.23 C192.05,48.73 188.51,52.36 181.88,52.36 Z M198.35,52 L198.35,31.72 L217.1,31.72 L217.1,35.47 L202.94,35.47 L202.94,39.79 L215.93,39.79 L215.93,43.54 L202.94,43.54 L202.94,48.25 L217.34,48.25 L217.34,52 L198.35,52 Z" id="boutique" fill="#FFFFFF"></path>
        <path d="M0.403,17.368 L8.184,17.368 L8.184,18.205 L6.417,19.166 L9.207,27.288 L12.183,19.166 L10.416,18.205 L10.416,17.368 L16.244,17.368 L16.244,18.205 L14.26,19.166 L8.339,34.263 C7.223,37.053 5.797,38.293 3.596,38.293 C1.457,38.293 0.279,37.084 0.279,35.534 C0.279,34.015 1.24,33.302 2.325,33.302 C3.348,33.302 4.34,33.922 4.34,35.1 C4.34,35.875 3.844,36.805 3.255,37.239 C4.867,37.394 5.766,35.875 6.355,34.263 L7.254,31.752 L2.387,19.166 L0.403,18.205 L0.403,17.368 Z M20.615,22.793 L26.505,22.483 C26.505,20.189 25.854,18.298 23.932,18.298 C22.072,18.298 20.77,20.468 20.615,22.793 Z M30.442,24.126 L20.522,24.126 C20.522,27.598 21.638,30.078 24.831,30.078 C26.133,30.078 28.055,29.768 29.667,29.427 L29.977,30.667 C28.21,31.38 25.327,32.527 23.498,32.527 C19.189,32.527 16.492,30.078 16.492,25.149 C16.492,20.623 19.499,16.934 24.118,16.934 C28.799,16.934 30.442,19.817 30.442,22.824 L30.442,24.126 Z M38.223,10.393 L38.223,30.078 L40.393,31.163 L40.393,32 L32.333,32 L32.333,31.163 L34.503,30.078 L34.503,13.245 L32.116,12.284 L32.116,11.447 L38.223,10.393 Z M47.833,10.393 L47.833,30.078 L50.003,31.163 L50.003,32 L41.943,32 L41.943,31.163 L44.113,30.078 L44.113,13.245 L41.726,12.284 L41.726,11.447 L47.833,10.393 Z M59.179,16.934 C63.705,16.934 66.588,19.476 66.588,24.467 C66.588,29.954 62.744,32.527 58.931,32.527 C54.467,32.527 51.553,29.799 51.553,24.777 C51.553,19.29 55.397,16.934 59.179,16.934 Z M58.962,18.298 C57.009,18.298 55.583,20.065 55.583,24.405 C55.583,29.21 57.009,31.163 59.179,31.163 C61.132,31.163 62.558,28.962 62.558,24.901 C62.558,20.282 61.101,18.298 58.962,18.298 Z M73.47,19.166 L75.888,27.164 L78.771,17.368 L81.313,17.368 L84.413,27.164 L87.017,19.166 L85.25,18.205 L85.25,17.368 L91.078,17.368 L91.078,18.205 L89.094,19.166 L84.413,32.403 L82.46,32.403 L79.174,22.421 L76.105,32.403 L73.935,32.403 L69.44,19.166 L67.456,18.205 L67.456,17.368 L75.237,17.368 L75.237,18.205 L73.47,19.166 Z" id="yellow" fill="#FFA616"></path>
    </g>
</svg>