<?xml version="1.0" encoding="UTF-8"?>
<svg width="120px" height="67px" viewBox="0 0 120 67" version="1.1" xmlns="http://www.w3.org/2000/svg" xmlns:xlink="http://www.w3.org/1999/xlink">
    <!-- Generator: Sketch 50.2 (55047) - http://www.bohemiancoding.com/sketch -->
    <title>Icon - Dates EN</title>
    <desc>Created with Sketch.</desc>
    <defs></defs>
    <g id="YelloWeek---02---City-page---Full-program---Short-example---English" stroke="none" stroke-width="1" fill="none" fill-rule="evenodd">
        <g id="YelloWeek---02---City-page---Full-program---Short-example---English/LG---960" transform="translate(-580.000000, -213.000000)">
            <g id="01---Introduction" transform="translate(0.000000, 80.000000)">
                <g id="Icon---Dates-EN" transform="translate(580.000000, 133.000000)">
                    <polygon id="Fill-31" fill="#FFFFFF" points="120 49.4278239 119.012907 49.8427496 119.012907 56.1572504 120 56.5721761 120 57 116.337705 57 116.337705 56.5721761 117.324688 56.1572504 117.324688 53.2657776 113.675312 53.2657776 113.675312 56.1572504 114.662295 56.5721761 114.662295 57 111 57 111 56.5721761 111.987093 56.1572504 111.987093 49.8427496 111 49.4278239 111 49 114.662295 49 114.662295 49.4278239 113.675312 49.8427496 113.675312 52.4748391 117.324688 52.4748391 117.324688 49.8427496 116.337705 49.4278239 116.337705 49 120 49"></polygon>
                    <polygon id="Fill-29" fill="#FFFFFF" points="111 49 111 51.0227083 110.310651 51.0227083 109.700765 49.8038366 108.361854 49.8038366 108.361854 56.1572504 109.369278 56.5721761 109.369278 57 105.630722 57 105.630722 56.5721761 106.63837 56.1572504 106.63837 49.8038366 105.299235 49.8038366 104.689461 51.0227083 104 51.0227083 104 49"></polygon>
                    <path d="M96.377969,60.6757221 L96.377969,52.5771881 L90.83858,60.6757221 L96.377969,60.6757221 Z M99.9055077,65.1398235 L102,66.0556275 L102,67 L94.2834768,67 L94.2834768,66.0556275 L96.377969,65.1398235 L96.377969,62.7360931 L88,62.7360931 L88,61.5628502 L96.5984855,49 L99.9055077,49 L99.9055077,60.6757221 L101.862229,60.6757221 L101.862229,62.7360931 L99.9055077,62.7360931 L99.9055077,65.1398235 Z" id="Fill-27" fill="#FFFFFF"></path>
                    <path d="M73.6308541,54.2239297 L73.6308541,50.021962 C75.0428623,49.4542409 76.9957476,49 79.0085048,49 C82.9141626,49 86.3089357,50.3343791 86.3089357,54.0819994 C86.3089357,57.8579632 82.223211,60.3847912 77.5365119,63.9053443 L84.236081,63.9053443 L85.4378045,61.4069663 L87,61.4069663 L87,67 L73,67 L73,65.949588 C79.429187,60.3281043 82.1931059,57.0631748 82.1931059,54.1104494 C82.1931059,51.7538952 81.081585,50.5331029 78.5880482,50.5331029 C77.9871864,50.5331029 77.266017,50.6466897 76.8154552,50.8169634 L75.1930496,54.2239297 L73.6308541,54.2239297 Z" id="Fill-25" fill="#FFFFFF"></path>
                    <path d="M64.3015148,62.0921487 C64.3015148,59.8310607 63.2921768,58.6635329 61.9630629,58.6635329 C60.7692467,58.6635329 59.6983814,59.6835399 59.6983814,61.8586432 C59.6983814,64.0829546 60.7445528,65.3363635 62.0491803,65.3363635 C63.2799336,65.3363635 64.3015148,64.0829546 64.3015148,62.0921487 M58,62.0307162 C58,59.0691115 60.1415231,58 62.0491803,58 C64.3507989,58 66,59.130544 66,61.8708675 C66,64.8324722 63.8461299,66 61.9261258,66 C59.6737912,66 58,64.7219352 58,62.0307162" id="Fill-23" fill="#FFFFFF"></path>
                    <polygon id="Fill-21" fill="#FFFFFF" points="57 58 57 60.0227083 56.3106399 60.0227083 55.700744 58.8038366 54.3617001 58.8038366 54.3617001 65.1572504 55.3693639 65.5721761 55.3693639 66 51.6306361 66 51.6306361 65.5721761 52.6382999 65.1572504 52.6382999 58.8038366 51.299256 58.8038366 50.6893601 60.0227083 50 60.0227083 50 58"></polygon>
                    <polygon id="Fill-19" fill="#FFFFFF" points="44 49.4278239 43.0130162 49.8427496 43.0130162 56.1572504 44 56.5721761 44 57 40.3377045 57 40.3377045 56.5721761 41.3246883 56.1572504 41.3246883 53.2657776 37.6753117 53.2657776 37.6753117 56.1572504 38.662405 56.5721761 38.662405 57 35 57 35 56.5721761 35.9870932 56.1572504 35.9870932 49.8427496 35 49.4278239 35 49 38.662405 49 38.662405 49.4278239 37.6753117 49.8427496 37.6753117 52.4748391 41.3246883 52.4748391 41.3246883 49.8427496 40.3377045 49.4278239 40.3377045 49 44 49"></polygon>
                    <polygon id="Fill-17" fill="#FFFFFF" points="34 49 34 51.0227083 33.3106399 51.0227083 32.700744 49.8038366 31.3617001 49.8038366 31.3617001 56.1572504 32.3693639 56.5721761 32.3693639 57 28.6306361 57 28.6306361 56.5721761 29.6382999 56.1572504 29.6382999 49.8038366 28.299256 49.8038366 27.6893601 51.0227083 27 51.0227083 27 49"></polygon>
                    <path d="M21.7137378,53.1750395 C21.7137378,51.5989577 20.8231212,50.4930646 18.986107,50.4930646 C17.6500776,50.4930646 16.3419388,51.3225103 16.3419388,52.9539024 C16.3419388,54.5852944 17.6222915,55.3041197 19.7096938,56.2441859 C20.8509073,55.5252568 21.7137378,54.7235181 21.7137378,53.1750395 M15.7018146,62.2165481 C15.7018146,64.1519907 17.0377395,65.5069354 19.2088133,65.5069354 C21.240539,65.5069354 22.4095386,64.2903181 22.4095386,62.6036159 C22.4095386,60.8063969 20.6282009,60.0045544 17.7336447,58.8709544 C16.5924312,59.5345732 15.7018146,60.5299496 15.7018146,62.2165481 M25.3319853,53.0091088 C25.3319853,55.3041197 23.1889065,56.5483402 21.518922,57.1013387 C24.7196472,58.4008694 26,60.0599684 26,62.1889449 C26,65.0921606 23.3002597,67 19.0417836,67 C13.9761535,67 12,64.6497827 12,62.5208062 C12,59.7557103 14.505029,58.539093 16.0914463,57.9860946 C13.697875,56.6313574 12.8071539,55.2488095 12.8071539,53.3962804 C12.8071539,50.6589953 15.646138,49 19.0417836,49 C23.5228616,49 25.3319853,50.9354426 25.3319853,53.0091088" id="Fill-14" fill="#FFFFFF"></path>
                    <polygon id="Fill-12" fill="#FFFFFF" points="10 66.1935507 10 67 0.782703291 67 0.782703291 66.1935507 3.50720696 65.271987 3.50720696 51.6494686 0.145009519 52.2254729 0 50.9583498 4.84057656 49 7.27538754 49 7.27538754 65.3007386"></polygon>
                    <path d="M120,38 L0,38" id="Stroke-33" stroke="#FFFFFF" stroke-width="2"></path>
                    <polygon id="Fill-9" fill="#FFFFFF" points="113.716273 17.8800559 112.384214 15.0210281 105.146697 15.0210281 105.146697 25.1863536 114.648609 25.1863536 116.691099 20.9206092 119 20.9206092 119 28 96 28 96 26.502414 99.374548 25.050316 99.374548 2.94979056 96 1.49758597 96 0 118.289569 0 118.289569 7.07939081 115.980772 7.07939081 113.938282 2.81364638 105.146697 2.81364638 105.146697 12.2528696 112.384214 12.2528696 113.716273 9.43932978 115.581154 9.43932978 115.581154 17.8800559"></polygon>
                    <polygon id="Fill-7" fill="#FFFFFF" points="83.3457693 3.03048293 79.9286778 1.53849899 79.9286778 0 90 0 90 1.53849899 86.583014 3.03048293 86.583014 29 83.3907311 29 67.6543362 7.36656125 67.6543362 25.7363946 71.0713222 27.2283785 71.0713222 28.7668775 61 28.7668775 61 27.2283785 64.4170916 25.7363946 64.4170916 3.03048293 61 1.53849899 61 0 69.1830351 0 83.3457693 19.3954628"></polygon>
                    <path d="M25,1.50948049 L25,0 L37.8571734,0 L37.8571734,1.50948049 L34.3920908,2.97321915 L34.3920908,18.159293 C34.3920908,23.3281201 36.3525981,26.5300484 41.0485899,26.5300484 C46.3829935,26.5300484 48.2523144,22.9164436 48.2523144,18.1136585 L48.2523144,2.97321915 L44.7872318,1.50948049 L44.7872318,0 L55,0 L55,1.50948049 L51.5349173,2.97321915 L51.5349173,18.1136585 C51.5349173,23.8770221 49.4376304,29 40.7295446,29 C31.8388719,29 28.4650827,24.5630422 28.4650827,18.5709694 L28.4650827,2.97321915 L25,1.50948049 Z" id="Fill-4" fill="#FFFFFF"></path>
                    <path d="M5.36823089,26.9873593 C8.97861094,26.9873593 10.2137791,25.2949115 10.2137791,19.7145153 L10.2137791,2.97321915 L6.60339905,1.50948049 L6.60339905,0 L20,0 L20,1.50948049 L16.3896199,2.97321915 L16.3896199,19.1198714 C16.3896199,25.2035352 13.3967125,29 6.08082791,29 C2.42282987,29 0,27.2618103 0,24.883235 C0,22.6418852 1.56771344,21.4527049 3.23043983,21.4527049 C5.51075029,21.4527049 6.650794,22.9164436 6.650794,24.4259241 C6.650794,25.7980717 5.84329557,26.4841992 4.84565974,26.9416175 C5.03568561,26.9873593 5.22571148,26.9873593 5.36823089,26.9873593" id="Fill-1" fill="#FFFFFF"></path>
                </g>
            </g>
        </g>
    </g>
</svg>