<?xml version="1.0" encoding="UTF-8"?>
<svg width="114px" height="74px" viewBox="0 0 114 74" version="1.1" xmlns="http://www.w3.org/2000/svg" xmlns:xlink="http://www.w3.org/1999/xlink">
    <!-- Generator: Sketch 50.2 (55047) - http://www.bohemiancoding.com/sketch -->
    <title>Icon - Dates FR</title>
    <desc>Created with Sketch.</desc>
    <defs></defs>
    <g id="YelloWeek---03---City-page---Full-program---Long-example---French" stroke="none" stroke-width="1" fill="none" fill-rule="evenodd">
        <g id="YelloWeek---03---City-page---Full-program---Long-example---French/MD---720" transform="translate(-303.000000, -144.000000)">
            <g id="01---Introduction" transform="translate(-280.000000, 54.000000)">
                <g id="Icon---Dates-FR" transform="translate(583.000000, 90.000000)">
                    <polygon id="Fill-8" fill="#FFFFFF" points="106.886857 46.1349823 103.234104 44.5915507 103.234104 43 114 43 114 44.5915507 110.34736 46.1349823 110.34736 73 106.934919 73 90.113256 50.6205806 90.113256 69.6238565 93.7658962 71.1672881 93.7658962 72.7588388 83 72.7588388 83 71.1672881 86.6527531 69.6238565 86.6527531 46.1349823 83 44.5915507 83 43 91.7473823 43 106.886857 63.0642719"></polygon>
                    <polygon id="Fill-6" fill="#FFFFFF" points="77 43 77 44.6045564 73.2269189 46.1603757 73.2269189 69.8395101 77 71.3954436 77 73 63 73 63 71.3954436 66.7730811 69.8395101 66.7730811 46.1603757 63 44.6045564 63 43"></polygon>
                    <path d="M25,44.6135826 L25,43 L38.2857459,43 L38.2857459,44.6135826 L34.7051605,46.1782687 L34.7051605,62.411658 C34.7051605,67.936956 36.731018,71.3597069 41.5835429,71.3597069 C47.09576,71.3597069 49.0273916,67.496888 49.0273916,62.3628763 L49.0273916,46.1782687 L45.4468062,44.6135826 L45.4468062,43 L56,43 L56,44.6135826 L52.4194146,46.1782687 L52.4194146,62.3628763 C52.4194146,68.5237133 50.2522181,74 41.2538628,74 C32.0668343,74 28.5805854,69.2570451 28.5805854,62.851726 L28.5805854,46.1782687 L25,44.6135826 Z" id="Fill-4" fill="#FFFFFF"></path>
                    <path d="M5.36823089,71.8485565 C8.97861094,71.8485565 10.2137791,70.0393882 10.2137791,64.074137 L10.2137791,46.1782687 L6.60339905,44.6135826 L6.60339905,43 L20,43 L20,44.6135826 L16.3896199,46.1782687 L16.3896199,63.4384833 C16.3896199,69.9417101 13.3967125,74 6.08082791,74 C2.42282987,74 0,72.1419352 0,69.5993202 C0,67.2033945 1.56771344,65.9322018 3.23043983,65.9322018 C5.51075029,65.9322018 6.650794,67.496888 6.650794,69.1104706 C6.650794,70.577249 5.84329557,71.3106957 4.84565974,71.7996601 C5.03568561,71.8485565 5.22571148,71.8485565 5.36823089,71.8485565" id="Fill-1" fill="#FFFFFF"></path>
                    <path d="M114,33 L6,33" id="Stroke-24" stroke="#FFFFFF" stroke-width="2"></path>
                    <path d="M106.771641,14.2703224 L106.771641,4.37196137 L99.649571,14.2703224 L106.771641,14.2703224 Z M111.307147,19.726512 L114,20.8457886 L114,22 L104.078673,22 L104.078673,20.8457886 L106.771641,19.726512 L106.771641,16.7885812 L96,16.7885812 L96,15.3545507 L107.055117,0 L111.307147,0 L111.307147,14.2703224 L113.822928,14.2703224 L113.822928,16.7885812 L111.307147,16.7885812 L111.307147,19.726512 Z" id="Fill-22" fill="#FFFFFF"></path>
                    <path d="M77.7662475,6.38485343 L77.7662475,1.24919822 C79.4808106,0.555224217 81.8519544,0 84.2962094,0 C89.0386154,0 93.1609962,1.6309008 93.1609962,6.2113318 C93.1609962,10.8265346 88.1994934,13.9148146 82.5086535,18.2176335 L90.6438667,18.2176335 L92.1030139,15.1640128 L94,15.1640128 L94,22 L77,22 L77,20.7160299 C84.8069228,13.8453834 88.1631744,9.85483599 88.1631744,6.24610364 C88.1631744,3.36589208 86.813339,1.8738536 83.7854961,1.8738536 C83.0559224,1.8738536 82.1803631,2.01260339 81.6332125,2.22078434 L79.6631153,6.38485343 L77.7662475,6.38485343 Z" id="Fill-19" fill="#FFFFFF"></path>
                    <path d="M58,13.5204683 L58,13 L62.2856985,13 L62.2856985,13.5204683 L61.1306389,14.0251962 L61.1306389,19.2618197 C61.1306389,21.0441651 61.7842206,22.1482933 63.34954,22.1482933 C65.1276278,22.1482933 65.7507666,20.9022714 65.7507666,19.2459644 L65.7507666,14.0251962 L64.595707,13.5204683 L64.595707,13 L68,13 L68,13.5204683 L66.8449404,14.0251962 L66.8449404,19.2459644 C66.8449404,21.233395 66.1458603,23 63.2431559,23 C60.2796763,23 59.1550596,21.4700759 59.1550596,19.4038283 L59.1550596,14.0251962 L58,13.5204683 Z" id="Fill-17" fill="#FFFFFF"></path>
                    <path d="M50.4425006,19.0800448 L53.3886167,19.0800448 L51.9316538,15.3680101 L50.4425006,19.0800448 Z M58,22.4720403 L58,23 L53.3726382,23 L53.3726382,22.4720403 L54.5574994,22.0080651 L53.7729181,20.0560127 L50.1383252,20.0560127 L49.4177747,21.9600476 L50.634593,22.4720403 L50.634593,23 L47,23 L47,22.4720403 L48.2649872,21.9600476 L51.883485,13 L53.0844413,13 L56.8951481,22.0080651 L58,22.4720403 Z" id="Fill-15" fill="#FFFFFF"></path>
                    <path d="M32.4890688,5.1028962 C32.4890688,3.17661124 31.3438981,1.82491307 28.9820704,1.82491307 C27.2644304,1.82491307 25.5825333,2.83874149 25.5825333,4.83253465 C25.5825333,6.82643739 27.2285712,7.70503024 29.9125507,8.85409423 C31.3797572,7.97539179 32.4890688,6.99542706 32.4890688,5.1028962 M24.7595144,16.1535273 C24.7595144,18.5191635 26.4771545,20.1750869 29.2684792,20.1750869 C31.8807404,20.1750869 33.38369,18.6881532 33.38369,16.6267423 C33.38369,14.4300957 31.0934645,13.450131 27.3717756,12.0644596 C25.9045691,12.8755442 24.7595144,14.0921164 24.7595144,16.1535273 M37.1411219,4.90015243 C37.1411219,7.70503024 34.3856564,9.22582766 32.2386353,9.90167675 C36.3539621,11.4899824 38,13.5176392 38,16.1197732 C38,19.6681179 34.5288607,22 29.0536726,22 C22.5407751,22 20,19.1275044 20,16.5253704 C20,13.1459058 23.2207057,11.658972 25.2603815,10.983123 C22.1828802,9.32719955 21.0377095,7.63741245 21.0377095,5.37325775 C21.0377095,2.02765684 24.6879122,0 29.0536726,0 C34.8151534,0 37.1411219,2.36552659 37.1411219,4.90015243" id="Fill-12" fill="#FFFFFF"></path>
                    <polygon id="Fill-10" fill="#FFFFFF" points="18 21.0144245 18 22 6.93914613 22 6.93914613 21.0144245 10.2086741 19.8879872 10.2086741 3.23845004 6.17393266 3.94241626 6 2.3936221 11.8086966 0 14.7304721 0 14.7304721 19.9232597"></polygon>
                </g>
            </g>
        </g>
    </g>
</svg>