<?xml version="1.0" encoding="UTF-8"?>
<svg width="243px" height="79px" viewBox="0 0 243 79" version="1.1" xmlns="http://www.w3.org/2000/svg" xmlns:xlink="http://www.w3.org/1999/xlink">
    <!-- Generator: Sketch 50.2 (55047) - http://www.bohemiancoding.com/sketch -->
    <title>hotel-titre</title>
    <desc>Created with Sketch.</desc>
    <defs></defs>
    <g id="hotel-titre" stroke="none" stroke-width="1" fill="none" fill-rule="evenodd">
        <path d="M72.85,57.6 L51.15,57.6 L51.15,72 L43.5,72 L43.5,38.2 L51.15,38.2 L51.15,51.35 L72.85,51.35 L72.85,38.2 L80.5,38.2 L80.5,72 L72.85,72 L72.85,57.6 Z M108.7,72.6 C95.55,72.6 88.25,64.2 88.25,55.1 C88.25,46.15 95.55,37.6 108.7,37.6 C121.85,37.6 129.1,46.15 129.1,55.1 C129.1,64.2 121.85,72.6 108.7,72.6 Z M108.7,44.15 C99.95,44.15 96.15,49.65 96.15,55.1 C96.15,60.55 99.95,66.05 108.7,66.05 C117.45,66.05 121.2,60.55 121.2,55.1 C121.2,49.65 117.45,44.15 108.7,44.15 Z M130.85,38.2 L165.5,38.2 L165.5,44.4 L152,44.4 L152,72 L144.35,72 L144.35,44.4 L130.85,44.4 L130.85,38.2 Z M172,72 L172,38.2 L203.25,38.2 L203.25,44.45 L179.65,44.45 L179.65,51.65 L201.3,51.65 L201.3,57.9 L179.65,57.9 L179.65,65.75 L203.65,65.75 L203.65,72 L172,72 Z M213.65,72 L213.65,38.2 L221.35,38.2 L221.35,65.75 L241.25,65.75 L241.25,72 L213.65,72 Z" id="hotel" fill="#1E1E1E"></path>
        <path d="M0.663,13.928 L13.464,13.928 L13.464,15.305 L10.557,16.886 L15.147,30.248 L20.043,16.886 L17.136,15.305 L17.136,13.928 L26.724,13.928 L26.724,15.305 L23.46,16.886 L13.719,41.723 C11.883,46.313 9.537,48.353 5.916,48.353 C2.397,48.353 0.459,46.364 0.459,43.814 C0.459,41.315 2.04,40.142 3.825,40.142 C5.508,40.142 7.14,41.162 7.14,43.1 C7.14,44.375 6.324,45.905 5.355,46.619 C8.007,46.874 9.486,44.375 10.455,41.723 L11.934,37.592 L3.927,16.886 L0.663,15.305 L0.663,13.928 Z M33.915,22.853 L43.605,22.343 C43.605,18.569 42.534,15.458 39.372,15.458 C36.312,15.458 34.17,19.028 33.915,22.853 Z M50.082,25.046 L33.762,25.046 C33.762,30.758 35.598,34.838 40.851,34.838 C42.993,34.838 46.155,34.328 48.807,33.767 L49.317,35.807 C46.41,36.98 41.667,38.867 38.658,38.867 C31.569,38.867 27.132,34.838 27.132,26.729 C27.132,19.283 32.079,13.214 39.678,13.214 C47.379,13.214 50.082,17.957 50.082,22.904 L50.082,25.046 Z M62.883,2.453 L62.883,34.838 L66.453,36.623 L66.453,38 L53.193,38 L53.193,36.623 L56.763,34.838 L56.763,7.145 L52.836,5.564 L52.836,4.187 L62.883,2.453 Z M78.693,2.453 L78.693,34.838 L82.263,36.623 L82.263,38 L69.003,38 L69.003,36.623 L72.573,34.838 L72.573,7.145 L68.646,5.564 L68.646,4.187 L78.693,2.453 Z M97.359,13.214 C104.805,13.214 109.548,17.396 109.548,25.607 C109.548,34.634 103.224,38.867 96.951,38.867 C89.607,38.867 84.813,34.379 84.813,26.117 C84.813,17.09 91.137,13.214 97.359,13.214 Z M97.002,15.458 C93.789,15.458 91.443,18.365 91.443,25.505 C91.443,33.41 93.789,36.623 97.359,36.623 C100.572,36.623 102.918,33.002 102.918,26.321 C102.918,18.722 100.521,15.458 97.002,15.458 Z M120.87,16.886 L124.848,30.044 L129.591,13.928 L133.773,13.928 L138.873,30.044 L143.157,16.886 L140.25,15.305 L140.25,13.928 L149.838,13.928 L149.838,15.305 L146.574,16.886 L138.873,38.663 L135.66,38.663 L130.254,22.241 L125.205,38.663 L121.635,38.663 L114.24,16.886 L110.976,15.305 L110.976,13.928 L123.777,13.928 L123.777,15.305 L120.87,16.886 Z" id="yellow" fill="#FFA616"></path>
    </g>
</svg>