<?xml version="1.0" encoding="UTF-8"?>
<svg width="32px" height="45px" viewBox="0 0 32 45" version="1.1" xmlns="http://www.w3.org/2000/svg" xmlns:xlink="http://www.w3.org/1999/xlink">
    <!-- Generator: Sketch 50.2 (55047) - http://www.bohemiancoding.com/sketch -->
    <title>Hotpoint - 1 - Brunch</title>
    <desc>Created with Sketch.</desc>
    <defs></defs>
    <g id="Hotpoint---1---Brunch" stroke="none" stroke-width="1" fill="none" fill-rule="evenodd">
        <g id="Point">
            <path d="M16.4383539,32.4096922 L16.4046102,32.4096922 C12.2724573,27.43684 8.54619255,25.2762813 2.51764566,24.4645051 C3.27061145,22.8554143 4.26556754,20.2725777 4.26556754,16.5019641 C4.26556754,12.846079 3.25325757,10.2131089 2.51764566,8.5558129 C5.93346872,8.79876729 14.3472107,4.94813299 16.4219641,0.592307815 C18.4967175,4.94813299 26.9104595,8.79876729 30.3243543,8.5558129 C29.5906706,10.2131089 28.5773966,12.846079 28.5773966,16.5019641 C28.5773966,20.2725777 29.5742809,22.8554143 30.3243543,24.4645051 C24.2958075,25.2762813 20.5714709,27.43684 16.4383539,32.4096922 L16.4383539,32.4096922 Z" id="Path" fill="#51C1CF"></path>
            <g id="Flèche-v2" transform="translate(9.000000, 13.000000)" stroke="#51C1CF" stroke-linecap="square" stroke-width="2">
                <path d="M7.5,0.194444444 L7.5,30.9555313" id="Line"></path>
                <path d="M7.5,31.3055556 L0.382017106,24.108484" id="Line-2"></path>
                <path d="M14.8076923,31.3055556 L7.68970941,24.108484" id="Line-2" transform="translate(11.153846, 27.611111) scale(-1, 1) translate(-11.153846, -27.611111) "></path>
            </g>
            <g id="Group-21" transform="translate(9.000000, 9.000000)" fill="#FFFFFF">
                <polygon id="Fill-8" points="14 7 10.8206857 15 8.81625578 15 6.96841294 10.075636 5.10477658 15 3.10034669 15 0 7 2.39560863 7 4.19684129 12.0869575 5.98208783 7 8.11151772 7 9.84976888 12.0724078 11.6350154 7"></polygon>
                <polygon id="Fill-1" points="11.1351192 0 7.53200709 4.44189324 3.89659248 0 3 0 7.11542249 5.12362462 7.11542249 9 7.90013788 9 7.90013788 5.12362462 12 0"></polygon>
            </g>
        </g>
    </g>
</svg>