<?xml version="1.0" encoding="UTF-8"?>
<svg width="39px" height="39px" viewBox="0 0 39 39" version="1.1" xmlns="http://www.w3.org/2000/svg" xmlns:xlink="http://www.w3.org/1999/xlink">
    <!-- Generator: Sketch 50.2 (55047) - http://www.bohemiancoding.com/sketch -->
    <title>icon_instagram</title>
    <desc>Created with Sketch.</desc>
    <defs></defs>
    <g id="YelloWeek---02---City-page---Full-program---Short-example---English" stroke="none" stroke-width="1" fill="none" fill-rule="evenodd">
        <g id="YelloWeek---02---City-page---Full-program---Short-example---English/SM---320" transform="translate(-140.000000, -975.000000)">
            <g id="01---Introduction" transform="translate(0.000000, 54.000000)">
                <g id="Introduction" transform="translate(0.000000, 457.000000)">
                    <g id="icon_instagram" transform="translate(128.000000, 452.000000)">
                        <rect id="zone" x="0" y="0" width="64" height="64"></rect>
                        <path d="M31.012,24.674 C27.512,24.674 24.676,27.512 24.676,31.01 C24.676,34.508 27.512,37.348 31.012,37.348 C34.512,37.348 37.348,34.508 37.348,31.01 C37.348,27.512 34.512,24.674 31.012,24.674 M31.012,40.772 C25.62,40.772 21.25,36.4 21.25,31.01 C21.25,25.62 25.62,21.248 31.012,21.248 C36.404,21.248 40.774,25.62 40.774,31.01 C40.774,36.4 36.404,40.772 31.012,40.772 M41.16,23.142 C39.898,23.142 38.878,22.124 38.878,20.864 C38.878,19.604 39.898,18.58 41.16,18.58 C42.42,18.58 43.44,19.604 43.44,20.864 C43.44,22.124 42.42,23.142 41.16,23.142 M46.486,23.328 C46.4,21.474 46.092,20.468 45.832,19.798 C45.486,18.912 45.076,18.278 44.408,17.614 C43.744,16.948 43.11,16.536 42.224,16.19 C41.554,15.928 40.546,15.622 38.694,15.538 C36.688,15.446 36.088,15.428 31.012,15.428 C25.934,15.428 25.334,15.446 23.33,15.538 C21.478,15.622 20.47,15.928 19.8,16.19 C18.912,16.536 18.278,16.948 17.614,17.614 C16.95,18.278 16.538,18.912 16.192,19.798 C15.932,20.468 15.62,21.474 15.538,23.328 C15.444,25.334 15.428,25.936 15.428,31.01 C15.428,36.088 15.444,36.688 15.538,38.69 C15.62,40.546 15.932,41.55 16.192,42.218 C16.538,43.108 16.95,43.74 17.614,44.406 C18.278,45.072 18.912,45.486 19.8,45.826 C20.47,46.088 21.478,46.398 23.33,46.482 C25.334,46.578 25.934,46.594 31.012,46.594 C36.088,46.594 36.69,46.578 38.694,46.482 C40.546,46.398 41.554,46.088 42.224,45.826 C43.11,45.486 43.744,45.072 44.408,44.406 C45.076,43.74 45.486,43.108 45.832,42.218 C46.092,41.55 46.4,40.546 46.486,38.69 C46.578,36.688 46.596,36.088 46.596,31.01 C46.596,25.936 46.578,25.334 46.486,23.328 M49.906,38.846 C49.816,40.87 49.494,42.252 49.024,43.462 C48.538,44.714 47.888,45.772 46.832,46.828 C45.776,47.882 44.716,48.536 43.464,49.022 C42.258,49.492 40.872,49.812 38.848,49.904 C36.82,49.996 36.176,50.022 31.012,50.022 C25.848,50.022 25.2,49.996 23.174,49.904 C21.15,49.812 19.768,49.492 18.56,49.022 C17.31,48.536 16.248,47.882 15.192,46.828 C14.136,45.772 13.486,44.714 12.998,43.462 C12.53,42.252 12.208,40.87 12.118,38.846 C12.024,36.818 12,36.174 12,31.01 C12,25.846 12.024,25.2 12.118,23.174 C12.208,21.146 12.53,19.766 12.998,18.556 C13.486,17.306 14.136,16.246 15.192,15.19 C16.248,14.134 17.31,13.484 18.56,12.996 C19.768,12.526 21.15,12.206 23.174,12.114 C25.2,12.022 25.848,12 31.012,12 C36.176,12 36.82,12.022 38.848,12.114 C40.872,12.206 42.258,12.526 43.464,12.996 C44.716,13.484 45.776,14.134 46.832,15.19 C47.888,16.246 48.538,17.306 49.024,18.556 C49.494,19.766 49.816,21.146 49.906,23.174 C50,25.2 50.022,25.846 50.022,31.01 C50.022,36.174 50,36.818 49.906,38.846" fill="#FFA616" fill-rule="evenodd"></path>
                    </g>
                </g>
            </g>
        </g>
    </g>
</svg>