<?xml version="1.0" encoding="UTF-8"?>
<svg width="119px" height="119px" viewBox="0 0 119 119" version="1.1" xmlns="http://www.w3.org/2000/svg" xmlns:xlink="http://www.w3.org/1999/xlink">
    <!-- Generator: Sketch 50.2 (55047) - http://www.bohemiancoding.com/sketch -->
    <title>launch_date-en-ca</title>
    <desc>Created with Sketch.</desc>
    <defs>
        <path d="M112,59 C112,29.7289167 88.2710833,6 59,6 C29.7289167,6 6,29.7289167 6,59 C6,88.2710833 29.7289167,112 59,112 C88.2710833,112 112,88.2710833 112,59" id="path-1"></path>
        <filter x="-12.3%" y="-10.4%" width="124.5%" height="124.5%" filterUnits="objectBoundingBox" id="filter-2">
            <feOffset dx="0" dy="2" in="SourceAlpha" result="shadowOffsetOuter1"></feOffset>
            <feGaussianBlur stdDeviation="4" in="shadowOffsetOuter1" result="shadowBlurOuter1"></feGaussianBlur>
            <feColorMatrix values="0 0 0 0 0   0 0 0 0 0   0 0 0 0 0  0 0 0 0.1 0" type="matrix" in="shadowBlurOuter1"></feColorMatrix>
        </filter>
    </defs>
    <g id="launch_date-en-ca" stroke="none" stroke-width="1" fill="none" fill-rule="evenodd">
        <g id="Dates">
            <path d="M119,59.5 C119,26.6390669 92.3609331,0 59.5,0 C26.6390669,0 0,26.6390669 0,59.5 C0,92.3609331 26.6390669,119 59.5,119 C92.3609331,119 119,92.3609331 119,59.5" id="Fill-5" fill="#FFFFFF"></path>
            <g id="Fill-5">
                <use fill="black" fill-opacity="1" filter="url(#filter-2)" xlink:href="#path-1"></use>
                <use fill="#FFFFFF" fill-rule="evenodd" xlink:href="#path-1"></use>
            </g>
            <g id="Icon---Dates-FR" transform="translate(20.000000, 33.000000)">
                <polygon id="Fill-8" fill="#1E1E1E" points="73.1331126 31.7957311 70.6338605 30.7320147 70.6338605 29.6351351 78 29.6351351 78 30.7320147 75.5008251 31.7957311 75.5008251 50.3108108 73.1659975 50.3108108 61.6564383 34.8871569 61.6564383 47.9840092 64.1556132 49.0477256 64.1556132 50.1446051 56.7894737 50.1446051 56.7894737 49.0477256 59.2887258 47.9840092 59.2887258 31.7957311 56.7894737 30.7320147 56.7894737 29.6351351 62.7745248 29.6351351 73.1331126 43.4632144"></polygon>
                <polygon id="Fill-6" fill="#1E1E1E" points="52.6842105 29.6351351 52.6842105 30.7409781 50.1026288 31.8132319 50.1026288 48.1326354 52.6842105 49.2049679 52.6842105 50.3108108 43.1052632 50.3108108 43.1052632 49.2049679 45.6868449 48.1326354 45.6868449 31.8132319 43.1052632 30.7409781 43.1052632 29.6351351"></polygon>
                <path d="M17.1052632,30.7471988 L17.1052632,29.6351351 L26.1955103,29.6351351 L26.1955103,30.7471988 L23.7456361,31.8255636 L23.7456361,43.01344 C23.7456361,46.8214156 25.1317492,49.1803385 28.4518978,49.1803385 C32.2234147,49.1803385 33.5450574,46.5181255 33.5450574,42.9798202 L33.5450574,31.8255636 L31.0951832,30.7471988 L31.0951832,29.6351351 L38.3157895,29.6351351 L38.3157895,30.7471988 L35.8659152,31.8255636 L35.8659152,42.9798202 C35.8659152,47.2258024 34.3830966,51 28.2263271,51 C21.9404656,51 19.5551374,47.7312068 19.5551374,43.3167301 L19.5551374,31.8255636 L17.1052632,30.7471988 Z" id="Fill-4" fill="#1E1E1E"></path>
                <path d="M3.67300008,49.5172484 C6.14326012,49.5172484 6.98837518,48.2703892 6.98837518,44.1592025 L6.98837518,31.8255636 L4.51811514,30.7471988 L4.51811514,29.6351351 L13.6842105,29.6351351 L13.6842105,30.7471988 L11.2139505,31.8255636 L11.2139505,43.7211168 C11.2139505,48.2030705 9.16617169,51 4.16056646,51 C1.6577257,51 0,49.7194418 0,47.9670991 C0,46.315853 1.07264604,45.4397607 2.21030093,45.4397607 C3.77051336,45.4397607 4.55054327,46.5181255 4.55054327,47.6301892 C4.55054327,48.641077 3.99804433,49.1465605 3.3154514,49.4835495 C3.4454691,49.5172484 3.5754868,49.5172484 3.67300008,49.5172484" id="Fill-1" fill="#1E1E1E"></path>
                <path d="M78,22.7432432 L4.10526316,22.7432432" id="Stroke-24" stroke="#1E1E1E" stroke-width="2"></path>
                <path d="M73.0542806,9.83495191 L73.0542806,3.01310851 L68.1812854,9.83495191 L73.0542806,9.83495191 Z M76.1575218,13.5952988 L78,14.3666921 L78,15.1621622 L71.2117238,15.1621622 L71.2117238,14.3666921 L73.0542806,13.5952988 L73.0542806,11.5705087 L65.6842105,11.5705087 L65.6842105,10.5821903 L73.2482381,0 L76.1575218,0 L76.1575218,9.83495191 L77.8788454,9.83495191 L77.8788454,11.5705087 L76.1575218,11.5705087 L76.1575218,13.5952988 Z" id="Fill-22" fill="#1E1E1E"></path>
                <path d="M53.2084851,4.40037196 L53.2084851,0.86093391 C54.3816072,0.382654528 56.0039688,0 57.6763538,0 C60.9211579,0 63.7417343,1.1239992 63.7417343,4.28078272 C63.7417343,7.46153062 60.3470218,9.5899398 56.4532892,12.5553961 L62.0194877,12.5553961 L63.0178516,10.4508737 L64.3157895,10.4508737 L64.3157895,15.1621622 L52.6842105,15.1621622 L52.6842105,14.2772639 C58.0257893,9.54208859 60.322172,6.79184642 60.322172,4.3047471 C60.322172,2.31973644 59.3986004,1.29143964 57.3269184,1.29143964 C56.8277364,1.29143964 56.2286695,1.3870645 55.8543033,1.53054056 L54.506342,4.40037196 L53.2084851,4.40037196 Z" id="Fill-19" fill="#1E1E1E"></path>
                <path d="M39.6842105,9.31816059 L39.6842105,8.95945946 L42.6165305,8.95945946 L42.6165305,9.31816059 L41.8262266,9.66601358 L41.8262266,13.2750379 C41.8262266,14.5034111 42.2734141,15.2643643 43.3444221,15.2643643 C44.5610085,15.2643643 44.9873666,14.4056195 44.9873666,13.2641106 L44.9873666,9.66601358 L44.1970627,9.31816059 L44.1970627,8.95945946 L46.5263158,8.95945946 L46.5263158,9.31816059 L45.7360118,9.66601358 L45.7360118,13.2641106 C45.7360118,14.6338263 45.2576939,15.8513514 43.271633,15.8513514 C41.2439891,15.8513514 40.4745145,14.7969442 40.4745145,13.3729087 L40.4745145,9.66601358 L39.6842105,9.31816059 Z" id="Fill-17" fill="#1E1E1E"></path>
                <path d="M34.5132899,13.1497606 L36.5290536,13.1497606 L35.5321842,10.5914664 L34.5132899,13.1497606 Z M39.6842105,15.4874872 L39.6842105,15.8513514 L36.5181209,15.8513514 L36.5181209,15.4874872 L37.3288154,15.1677205 L36.7919966,13.8223871 L34.3051699,13.8223871 L33.8121616,15.1346274 L34.6447215,15.4874872 L34.6447215,15.8513514 L32.1578947,15.8513514 L32.1578947,15.4874872 L33.0234123,15.1346274 L35.4992265,8.95945946 L36.3209335,8.95945946 L38.9282592,15.1677205 L39.6842105,15.4874872 Z" id="Fill-15" fill="#1E1E1E"></path>
                <path d="M22.2293629,3.51686089 C22.2293629,2.18928612 21.445825,1.25771036 19.8298377,1.25771036 C18.6546102,1.25771036 17.5038386,1.95642995 17.5038386,3.33053063 C17.5038386,4.70470685 18.6300751,5.31022354 20.4664821,6.10214602 C21.4703602,5.4965538 22.2293629,4.8211727 22.2293629,3.51686089 M16.9407204,11.1328364 C16.9407204,12.7632073 18.1159478,13.9044518 20.0258015,13.9044518 C21.8131382,13.9044518 22.8414721,12.8796731 22.8414721,11.458971 C22.8414721,9.94506598 21.2744757,9.26968489 18.728057,8.31469511 C17.7241789,8.87368588 16.9407204,9.71213428 16.9407204,11.1328364 M25.4123466,3.37713208 C25.4123466,5.31022354 23.527028,6.35834069 22.0580136,6.82412857 C24.8737635,7.91877163 26,9.3162108 26,11.1095735 C26,13.5550542 23.62501,15.1621622 19.8788286,15.1621622 C15.4226356,15.1621622 13.6842105,13.1824693 13.6842105,11.3891066 C13.6842105,9.06001614 15.8878513,8.03523748 17.283419,7.5694496 C15.1777601,6.42820509 14.3942223,5.26362209 14.3942223,3.70319115 C14.3942223,1.39743917 16.8917294,0 19.8788286,0 C23.8208944,0 25.4123466,1.63029535 25.4123466,3.37713208" id="Fill-12" fill="#1E1E1E"></path>
                <polygon id="Fill-10" fill="#1E1E1E" points="12.3157895 14.4829142 12.3157895 15.1621622 4.74783682 15.1621622 4.74783682 14.4829142 6.98488226 13.7065858 6.98488226 2.23190476 4.22426971 2.71707066 4.10526316 1.64965847 8.07963454 0 10.078744 0 10.078744 13.7308952"></polygon>
            </g>
        </g>
    </g>
</svg>