<?xml version="1.0" encoding="UTF-8"?>
<svg width="119px" height="119px" viewBox="0 0 119 119" version="1.1" xmlns="http://www.w3.org/2000/svg" xmlns:xlink="http://www.w3.org/1999/xlink">
    <!-- Generator: Sketch 50.2 (55047) - http://www.bohemiancoding.com/sketch -->
    <title>launch_date-en-ca</title>
    <desc>Created with Sketch.</desc>
    <defs>
        <path d="M112,59 C112,29.7289167 88.2710833,6 59,6 C29.7289167,6 6,29.7289167 6,59 C6,88.2710833 29.7289167,112 59,112 C88.2710833,112 112,88.2710833 112,59" id="path-1"></path>
        <filter x="-12.3%" y="-10.4%" width="124.5%" height="124.5%" filterUnits="objectBoundingBox" id="filter-2">
            <feOffset dx="0" dy="2" in="SourceAlpha" result="shadowOffsetOuter1"></feOffset>
            <feGaussianBlur stdDeviation="4" in="shadowOffsetOuter1" result="shadowBlurOuter1"></feGaussianBlur>
            <feColorMatrix values="0 0 0 0 0   0 0 0 0 0   0 0 0 0 0  0 0 0 0.1 0" type="matrix" in="shadowBlurOuter1"></feColorMatrix>
        </filter>
    </defs>
    <g id="launch_date-en-ca" stroke="none" stroke-width="1" fill="none" fill-rule="evenodd">
        <g id="Dates">
            <path d="M119,59.5 C119,26.6390669 92.3609331,0 59.5,0 C26.6390669,0 0,26.6390669 0,59.5 C0,92.3609331 26.6390669,119 59.5,119 C92.3609331,119 119,92.3609331 119,59.5" id="Fill-5" fill="#FFFFFF"></path>
            <g id="Fill-5">
                <use fill="black" fill-opacity="1" filter="url(#filter-2)" xlink:href="#path-1"></use>
                <use fill="#FFFFFF" fill-rule="evenodd" xlink:href="#path-1"></use>
            </g>
            <g id="Icon---Dates-EN" transform="translate(18.000000, 36.000000)">
                <polygon id="Fill-31" fill="#1E1E1E" points="82 34.6732496 81.3254863 34.9643169 81.3254863 39.3938921 82 39.6849594 82 39.9850746 79.4974314 39.9850746 79.4974314 39.6849594 80.1718703 39.3938921 80.1718703 37.3655455 77.6781297 37.3655455 77.6781297 39.3938921 78.3525686 39.6849594 78.3525686 39.9850746 75.85 39.9850746 75.85 39.6849594 76.5245137 39.3938921 76.5245137 34.9643169 75.85 34.6732496 75.85 34.3731343 78.3525686 34.3731343 78.3525686 34.6732496 77.6781297 34.9643169 77.6781297 36.810708 80.1718703 36.810708 80.1718703 34.9643169 79.4974314 34.6732496 79.4974314 34.3731343 82 34.3731343"></polygon>
                <polygon id="Fill-29" fill="#1E1E1E" points="75.85 34.3731343 75.85 35.7920491 75.3789448 35.7920491 74.9621893 34.9370197 74.0472669 34.9370197 74.0472669 39.3938921 74.7356734 39.6849594 74.7356734 39.9850746 72.1809932 39.9850746 72.1809932 39.6849594 72.8695525 39.3938921 72.8695525 34.9370197 71.9544774 34.9370197 71.5377982 35.7920491 71.0666667 35.7920491 71.0666667 34.3731343"></polygon>
                <path d="M65.8582788,42.5635663 L65.8582788,36.8825051 L62.0730297,42.5635663 L65.8582788,42.5635663 Z M68.2687636,45.6951001 L69.7,46.3375297 L69.7,47 L64.4270425,47 L64.4270425,46.3375297 L65.8582788,45.6951001 L65.8582788,44.0089011 L60.1333333,44.0089011 L60.1333333,43.18588 L66.0089651,34.3731343 L68.2687636,34.3731343 L68.2687636,42.5635663 L69.6058565,42.5635663 L69.6058565,44.0089011 L68.2687636,44.0089011 L68.2687636,45.6951001 Z" id="Fill-27" fill="#1E1E1E"></path>
                <path d="M50.314417,38.037682 L50.314417,35.0900331 C51.2792893,34.6917809 52.6137609,34.3731343 53.989145,34.3731343 C56.6580111,34.3731343 58.9777727,35.3091913 58.9777727,37.938119 C58.9777727,40.5869294 56.1858609,42.3594804 52.9832831,44.8291221 L57.561322,44.8291221 L58.3824998,43.0765286 L59.45,43.0765286 L59.45,47 L49.8833333,47 L49.8833333,46.2631438 C54.2766111,42.3197149 56.1652891,40.0293913 56.1652891,37.9580765 C56.1652891,36.3049712 55.4057497,35.4485945 53.7018329,35.4485945 C53.291244,35.4485945 52.7984449,35.5282749 52.4905611,35.6477206 L51.3819172,38.037682 L50.314417,38.037682 Z" id="Fill-25" fill="#1E1E1E"></path>
                <path d="M43.9393685,43.5571789 C43.9393685,41.9710426 43.2496541,41.1520305 42.3414263,41.1520305 C41.5256519,41.1520305 40.793894,41.8675578 40.793894,43.3933765 C40.793894,44.9537144 41.5087778,45.8329714 42.4002732,45.8329714 C43.241288,45.8329714 43.9393685,44.9537144 43.9393685,43.5571789 M39.6333333,43.5140845 C39.6333333,41.4365409 41.0967075,40.6865672 42.4002732,40.6865672 C43.9730459,40.6865672 45.1,41.4796353 45.1,43.4019518 C45.1,45.4794954 43.6281888,46.2985075 42.3161859,46.2985075 C40.7770907,46.2985075 39.6333333,45.4019545 39.6333333,43.5140845" id="Fill-23" fill="#1E1E1E"></path>
                <polygon id="Fill-21" fill="#1E1E1E" points="38.95 40.6865672 38.95 42.105482 38.4789373 42.105482 38.0621751 41.2504526 37.1471617 41.2504526 37.1471617 45.7073249 37.835732 45.9983922 37.835732 46.2985075 35.2809347 46.2985075 35.2809347 45.9983922 35.9695049 45.7073249 35.9695049 41.2504526 35.0544916 41.2504526 34.6377294 42.105482 34.1666667 42.105482 34.1666667 40.6865672"></polygon>
                <polygon id="Fill-19" fill="#1E1E1E" points="30.0666667 34.6732496 29.3922278 34.9643169 29.3922278 39.3938921 30.0666667 39.6849594 30.0666667 39.9850746 27.5640981 39.9850746 27.5640981 39.6849594 28.238537 39.3938921 28.238537 37.3655455 25.7447963 37.3655455 25.7447963 39.3938921 26.4193101 39.6849594 26.4193101 39.9850746 23.9166667 39.9850746 23.9166667 39.6849594 24.5911804 39.3938921 24.5911804 34.9643169 23.9166667 34.6732496 23.9166667 34.3731343 26.4193101 34.3731343 26.4193101 34.6732496 25.7447963 34.9643169 25.7447963 36.810708 28.238537 36.810708 28.238537 34.9643169 27.5640981 34.6732496 27.5640981 34.3731343 30.0666667 34.3731343"></polygon>
                <polygon id="Fill-17" fill="#1E1E1E" points="23.2333333 34.3731343 23.2333333 35.7920491 22.7622706 35.7920491 22.3455084 34.9370197 21.4304951 34.9370197 21.4304951 39.3938921 22.1190653 39.6849594 22.1190653 39.9850746 19.564268 39.9850746 19.564268 39.6849594 20.2528383 39.3938921 20.2528383 34.9370197 19.3378249 34.9370197 18.9210627 35.7920491 18.45 35.7920491 18.45 34.3731343"></polygon>
                <path d="M14.8377209,37.3018934 C14.8377209,36.1962837 14.2291328,35.420508 12.9738398,35.420508 C12.0608864,35.420508 11.1669915,36.002358 11.1669915,37.1467673 C11.1669915,38.2911767 12.0418992,38.7954273 13.4682908,39.4548767 C14.24812,38.9505533 14.8377209,38.3881396 14.8377209,37.3018934 M10.7295733,43.6444442 C10.7295733,45.0021427 11.6424553,45.9526263 13.1260225,45.9526263 C14.5143683,45.9526263 15.3131847,45.0991784 15.3131847,43.9159693 C15.3131847,42.6552337 14.0959373,42.0927471 12.1179906,41.2975351 C11.3381613,41.7630588 10.7295733,42.4613079 10.7295733,43.6444442 M17.31019,37.1854943 C17.31019,38.7954273 15.8457528,39.6682387 14.7045967,40.0561629 C16.8917589,40.967774 17.7666667,42.1316196 17.7666667,43.6250807 C17.7666667,45.6616649 15.9218441,47 13.0118854,47 C9.55037158,47 8.2,45.3513401 8.2,43.857879 C8.2,41.9181848 9.91176978,41.0647369 10.9958216,40.6768126 C9.36021459,39.7264746 8.75155519,38.7566276 8.75155519,37.4570922 C8.75155519,35.5369071 10.6915276,34.3731343 13.0118854,34.3731343 C16.0739554,34.3731343 17.31019,35.7308329 17.31019,37.1854943" id="Fill-14" fill="#1E1E1E"></path>
                <polygon id="Fill-12" fill="#1E1E1E" points="6.83333333 46.4342818 6.83333333 47 0.534847249 47 0.534847249 46.4342818 2.39659142 45.7878118 2.39659142 36.2317168 0.0990898377 36.6357795 0 35.7469021 3.30772731 34.3731343 4.97151482 34.3731343 4.97151482 45.8079808"></polygon>
                <path d="M82,26.6567164 L0,26.6567164" id="Stroke-33" stroke="#1E1E1E" stroke-width="2"></path>
                <polygon id="Fill-9" fill="#1E1E1E" points="77.7061196 12.5427257 76.7958797 10.5371391 71.8502428 10.5371391 71.8502428 17.6680391 78.3432163 17.6680391 79.7389175 14.6756512 81.3166667 14.6756512 81.3166667 19.641791 65.6 19.641791 65.6 18.5912457 67.9059411 17.5726097 67.9059411 2.06925606 65.6 1.05054539 65.6 0 80.8312054 0 80.8312054 4.96613982 79.2535274 4.96613982 77.8578262 1.97375194 71.8502428 1.97375194 71.8502428 8.5952966 76.7958797 8.5952966 77.7061196 6.6216194 78.9804555 6.6216194 78.9804555 12.5427257"></polygon>
                <polygon id="Fill-7" fill="#1E1E1E" points="56.9529424 2.12586116 54.6179298 1.07924556 54.6179298 0 61.5 0 61.5 1.07924556 59.1650595 2.12586116 59.1650595 20.3432836 56.9836662 20.3432836 46.2304631 5.16758774 46.2304631 18.0538887 48.5654035 19.1005043 48.5654035 20.1797499 41.6833333 20.1797499 41.6833333 19.1005043 44.0183459 18.0538887 44.0183459 2.12586116 41.6833333 1.07924556 41.6833333 0 47.275074 0 56.9529424 13.6057724"></polygon>
                <path d="M17.0833333,1.0588893 L17.0833333,0 L25.8690685,0 L25.8690685,1.0588893 L23.501262,2.08569104 L23.501262,12.7386085 C23.501262,16.3645021 24.840942,18.610631 28.0498698,18.610631 C31.6950456,18.610631 32.9724149,16.0757142 32.9724149,12.7065963 L32.9724149,2.08569104 L30.6046084,1.0588893 L30.6046084,0 L37.5833333,0 L37.5833333,1.0588893 L35.2155268,2.08569104 L35.2155268,12.7065963 C35.2155268,16.7495528 33.7823808,20.3432836 27.8318555,20.3432836 C21.7565625,20.3432836 19.4511398,17.2307908 19.4511398,13.0273965 L19.4511398,2.08569104 L17.0833333,1.0588893 Z" id="Fill-4" fill="#1E1E1E"></path>
                <path d="M3.66829111,18.9314312 C6.13538414,18.9314312 6.97941572,17.7441917 6.97941572,13.8295853 L6.97941572,2.08569104 L4.51232269,1.0588893 L4.51232269,0 L13.6666667,0 L13.6666667,1.0588893 L11.1995736,2.08569104 L11.1995736,13.4124471 C11.1995736,17.6800919 9.15442018,20.3432836 4.1552324,20.3432836 C1.65560041,20.3432836 0,19.1239565 0,17.4554037 C0,15.8831135 1.07127085,15.0489124 2.20746721,15.0489124 C3.76567936,15.0489124 4.54470924,16.0757142 4.54470924,17.1346035 C4.54470924,18.0971548 3.99291864,18.5784681 3.31120082,18.8993436 C3.44105183,18.9314312 3.57090285,18.9314312 3.66829111,18.9314312" id="Fill-1" fill="#1E1E1E"></path>
            </g>
        </g>
    </g>
</svg>