<?xml version="1.0" encoding="UTF-8"?>
<svg width="24px" height="19px" viewBox="0 0 24 19" version="1.1" xmlns="http://www.w3.org/2000/svg" xmlns:xlink="http://www.w3.org/1999/xlink">
    <!-- Generator: Sketch 50.2 (55047) - http://www.bohemiancoding.com/sketch -->
    <title>logo-twitter</title>
    <desc>Created with Sketch.</desc>
    <defs></defs>
    <g id="YelloWeek---07---Sharing" stroke="none" stroke-width="1" fill="none" fill-rule="evenodd">
        <g id="YelloWeek---07---Sharing/Sharing-behaviour" transform="translate(-810.000000, -222.000000)">
            <g id="Hover-icons" transform="translate(750.000000, 211.000000)">
                <g id="logo-twitter-bird" transform="translate(60.000000, 9.000000)">
                    <g id="Outline_Icons">
                        <g id="logo-twitter">
                            <path d="M23.407,4.834 C22.593,5.197 21.907,5.209 21.179,4.85 C22.117,4.288 22.16,3.893 22.499,2.831 C21.621,3.352 20.648,3.731 19.613,3.935 C18.786,3.053 17.604,2.5 16.298,2.5 C13.788,2.5 11.754,4.536 11.754,7.044 C11.754,7.4 11.794,7.747 11.871,8.08 C8.095,7.891 4.746,6.082 2.505,3.332 C2.114,4.003 1.89,4.784 1.89,5.617 C1.89,7.194 2.693,8.584 3.911,9.399 C3.166,9.375 2.466,9.171 1.854,8.831 C1.853,8.85 1.853,8.868 1.853,8.888 C1.853,11.09 3.419,12.926 5.499,13.344 C4.833,13.525 4.131,13.553 3.446,13.423 C4.025,15.227 5.703,16.541 7.691,16.578 C5.747,18.102 3.336,18.737 0.963,18.459 C2.975,19.748 5.362,20.5 7.929,20.5 C16.287,20.5 20.857,13.576 20.857,7.571 C20.857,7.373 20.854,7.178 20.845,6.983 C21.731,6.343 22.798,5.746 23.407,4.834 Z" id="Shape" stroke="#FFFFFF" stroke-width="1" stroke-linejoin="round"></path>
                            <rect id="Rectangle-path" x="0" y="0" width="24" height="24"></rect>
                        </g>
                    </g>
                </g>
            </g>
        </g>
    </g>
</svg>