<?xml version="1.0" encoding="UTF-8"?>
<svg width="159px" height="15px" viewBox="0 0 159 15" version="1.1" xmlns="http://www.w3.org/2000/svg" xmlns:xlink="http://www.w3.org/1999/xlink">
    <!-- Generator: Sketch 50.2 (55047) - http://www.bohemiancoding.com/sketch -->
    <title>Logo YelloWeek</title>
    <desc>Created with Sketch.</desc>
    <defs></defs>
    <g id="YelloWeek---06---Location-pop-in---Long-example" stroke="none" stroke-width="1" fill="none" fill-rule="evenodd">
        <g id="YelloWeek---06---Location-pop-in---Long-example/MD---720" transform="translate(-281.000000, -18.000000)" fill="#FFA616">
            <g id="Header">
                <g id="Logo-YelloWeek" transform="translate(281.000000, 18.000000)">
                    <polygon id="Fill-14" points="152.086208 6.79707641 159 15 157.515201 15 151.233774 7.57303294 147.217122 11.2475277 147.217122 15 146 15 146 1 147.217122 1 147.217122 9.82419806 156.638813 1 158.415841 1"></polygon>
                    <polygon id="Fill-12" points="128 1 140.846421 1 140.846421 2.16425307 129.256071 2.16425307 129.256071 7.26239571 140.076632 7.26239571 140.076632 8.42696706 129.256071 8.42696706 129.256071 13.8354286 141 13.8354286 141 15 128 15"></polygon>
                    <polygon id="Fill-10" points="109 1 121.846105 1 121.846105 2.16425307 110.256071 2.16425307 110.256071 7.26239571 121.076632 7.26239571 121.076632 8.42696706 110.256071 8.42696706 110.256071 13.8354286 122 13.8354286 122 15 109 15"></polygon>
                    <polygon id="Fill-8" points="106 1 100.776841 15 97.4838488 15 94.448107 6.38236297 91.3864187 15 88.0934267 15 83 1 86.9356427 1 89.8948107 9.90217564 92.8277157 1 96.3260648 1 99.1817632 9.87671357 102.114668 1"></polygon>
                    <path d="M79.6640073,7.51338703 C79.6640073,4.35404876 77.1231405,1.22148455 72.5130474,1.22148455 C67.8504425,1.22148455 65.3359927,4.35404876 65.3359927,7.51338703 C65.3359927,10.7520679 67.8504425,13.7781889 72.5130474,13.7781889 C77.1231405,13.7781889 79.6640073,10.7520679 79.6640073,7.51338703 M64,7.51338703 C64,3.69090118 67.0125073,0 72.5130474,0 C77.9617199,0 81,3.69090118 81,7.51338703 C81,11.3890945 77.9617199,15 72.5130474,15 C67.0125073,15 64,11.3890945 64,7.51338703" id="Fill-5"></path>
                    <polygon id="Fill-4" points="51 1 51 15 62 15 62 13.8351369 52.2136229 13.8351369 52.2136229 1"></polygon>
                    <polygon id="Fill-3" points="36 1 36 15 47 15 47 13.8351369 37.2136229 13.8351369 37.2136229 1"></polygon>
                    <polygon id="Fill-2" points="17 1 17 15 30 15 30 13.8351369 18.2561011 13.8351369 18.2561011 8.42679822 29.0769249 8.42679822 29.0769249 7.26225334 18.2561011 7.26225334 18.2561011 2.16454488 29.8467323 2.16454488 29.8467323 1"></polygon>
                    <polygon id="Fill-1" points="12.6546298 1 7.04978881 7.90961171 1.39469941 1 0 1 6.40176832 8.97008275 6.40176832 15 7.6224367 15 7.6224367 8.97008275 14 1"></polygon>
                </g>
            </g>
        </g>
    </g>
</svg>