<?xml version="1.0" encoding="UTF-8"?>
<svg width="24px" height="24px" viewBox="0 0 24 24" version="1.1" xmlns="http://www.w3.org/2000/svg" xmlns:xlink="http://www.w3.org/1999/xlink">
    <!-- Generator: Sketch 50.2 (55047) - http://www.bohemiancoding.com/sketch -->
    <title>logo-whatsapp</title>
    <desc>Created with Sketch.</desc>
    <defs></defs>
    <g id="YelloWeek---07---Sharing" stroke="none" stroke-width="1" fill="none" fill-rule="evenodd">
        <g id="YelloWeek---07---Sharing/Sharing-behaviour" transform="translate(-829.000000, -596.000000)">
            <g id="Tap-icons" transform="translate(727.000000, 576.000000)">
                <g id="logo-whatsapp" transform="translate(102.000000, 20.000000)">
                    <g id="Outline_Icons">
                        <g id="logo-whatsapp">
                            <path d="M11.999,0.68 C5.658,0.68 0.499,5.797 0.499,12.089 C0.499,14.586 1.313,16.899 2.69,18.779 L1.253,23.017 L5.672,21.613 C7.488,22.805 9.663,23.5 12,23.5 C18.34,23.5 23.499,18.382 23.499,12.09 C23.499,5.799 18.341,0.68 11.999,0.68 M18.906,15.215 C18.822,15.077 18.598,14.992 18.263,14.827 C17.927,14.66 16.279,13.855 15.972,13.745 C15.664,13.634 15.441,13.578 15.217,13.911 C14.994,14.244 14.351,14.992 14.155,15.215 C13.959,15.438 13.763,15.465 13.428,15.299 C13.093,15.133 12.013,14.781 10.732,13.649 C9.735,12.766 9.063,11.678 8.868,11.344 C8.672,11.012 8.847,10.832 9.014,10.666 C9.58,10.108 9.72,9.795 9.854,9.528 C9.967,9.307 9.91,9.113 9.826,8.945 C9.742,8.779 9.071,7.142 8.792,6.478 C8.476,5.721 7.067,5.695 6.5,6.309 C4.711,8.25 5.124,10.45 6.696,12.525 C6.864,12.747 9.015,16.215 12.424,17.547 C15.832,18.878 15.832,18.434 16.447,18.378 C18.214,18.219 19.41,16.055 18.906,15.215" id="Shape" stroke="#FFA616" stroke-width="1" stroke-linejoin="round"></path>
                            <rect id="Rectangle-path" x="0" y="0" width="24" height="24"></rect>
                        </g>
                    </g>
                </g>
            </g>
        </g>
    </g>
</svg>