<?xml version="1.0" encoding="UTF-8"?>
<svg width="14px" height="24px" viewBox="0 0 14 24" version="1.1" xmlns="http://www.w3.org/2000/svg" xmlns:xlink="http://www.w3.org/1999/xlink">
    <!-- Generator: Sketch 50.2 (55047) - http://www.bohemiancoding.com/sketch -->
    <title>logo-facebook</title>
    <desc>Created with Sketch.</desc>
    <defs></defs>
    <g id="YelloWeek---07---Sharing" stroke="none" stroke-width="1" fill="none" fill-rule="evenodd">
        <g id="YelloWeek---07---Sharing/Sharing-behaviour" transform="translate(-768.000000, -220.000000)">
            <g id="Hover-icons" transform="translate(750.000000, 211.000000)">
                <g id="logo-facebook" transform="translate(12.000000, 9.000000)">
                    <g id="Outline_Icons">
                        <g id="logo-facebook">
                            <path d="M18.768,7.5 L14.5,7.5 L14.5,5.595 C14.5,4.699 15.094,4.49 15.512,4.49 C15.93,4.49 18.5,4.49 18.5,4.49 L18.5,0.548 L14.171,0.535 C10.244,0.535 9.5,3.473 9.5,5.355 L9.5,7.5 L6.5,7.5 L6.5,11.5 L9.5,11.5 C9.5,16.712 9.5,23.5 9.5,23.5 L14.5,23.5 C14.5,23.5 14.5,16.65 14.5,11.5 L18.351,11.5 L18.768,7.5 Z" id="Shape" stroke="#FFFFFF" stroke-width="1" stroke-linejoin="round"></path>
                            <rect id="Rectangle-path" x="0" y="0" width="24" height="24"></rect>
                        </g>
                    </g>
                </g>
            </g>
        </g>
    </g>
</svg>