<?xml version="1.0" encoding="UTF-8"?>
<svg width="861px" height="122px" viewBox="0 0 861 122" version="1.1" xmlns="http://www.w3.org/2000/svg" xmlns:xlink="http://www.w3.org/1999/xlink">
    <!-- Generator: Sketch 50.2 (55047) - http://www.bohemiancoding.com/sketch -->
    <title>Icon - YelloWeek logo</title>
    <desc>Created with Sketch.</desc>
    <defs>
        <path d="M112,59 C112,29.7289167 88.2710833,6 59,6 C29.7289167,6 6,29.7289167 6,59 C6,88.2710833 29.7289167,112 59,112 C88.2710833,112 112,88.2710833 112,59" id="path-1"></path>
        <filter x="-12.3%" y="-10.4%" width="124.5%" height="124.5%" filterUnits="objectBoundingBox" id="filter-2">
            <feOffset dx="0" dy="2" in="SourceAlpha" result="shadowOffsetOuter1"></feOffset>
            <feGaussianBlur stdDeviation="4" in="shadowOffsetOuter1" result="shadowBlurOuter1"></feGaussianBlur>
            <feColorMatrix values="0 0 0 0 0   0 0 0 0 0   0 0 0 0 0  0 0 0 0.1 0" type="matrix" in="shadowBlurOuter1"></feColorMatrix>
        </filter>
    </defs>
    <g id="YelloWeek---01---City-selector---FR" stroke="none" stroke-width="1" fill="none" fill-rule="evenodd">
        <g id="YelloWeek---01---City-selector---FR/LG---960" transform="translate(-210.000000, -236.000000)">
            <g id="Icon---YelloWeek-logo" transform="translate(210.000000, 236.000000)">
                <g id="YelloWeek-logo" transform="translate(0.000000, 21.000000)" fill="#FFFFFF">
                    <path d="M822.708232,32.6416896 L861,76 L852.776498,76 L817.987056,36.7431741 L795.740983,56.1655034 L795.740983,76 L789,76 L789,2 L795.740983,2 L795.740983,48.6421897 L847.922659,2 L857.76466,2 L822.708232,32.6416896 Z M691,2 L758.196662,2 L758.196662,8.15390911 L697.570216,8.15390911 L697.570216,35.1012345 L754.170075,35.1012345 L754.170075,41.2568259 L697.570216,41.2568259 L697.570216,69.8444086 L759,69.8444086 L759,76 L691,76 L691,2 Z M592,2 L659.195012,2 L659.195012,8.15390911 L598.570216,8.15390911 L598.570216,35.1012345 L655.170075,35.1012345 L655.170075,41.2568259 L598.570216,41.2568259 L598.570216,69.8444086 L660,69.8444086 L660,76 L592,76 L592,2 Z M569,2 L541.52164,76 L524.197639,76 L508.226998,30.4496328 L492.119855,76 L474.795854,76 L448,2 L468.704903,2 L484.2727,49.054357 L499.702331,2 L518.106689,2 L533.130145,48.9197718 L548.559776,2 L569,2 Z M348,38.5687201 C348,18.946626 363.594156,0 392.06754,0 C420.272433,0 436,18.946626 436,38.5687201 C436,58.4640183 420.272433,77 392.06754,77 C363.594156,77 348,58.4640183 348,38.5687201 Z M278,2 L284.619761,2 L284.619761,69.8428662 L338,69.8428662 L338,76 L278,76 L278,2 Z M195,2 L201.619761,2 L201.619761,69.8428662 L255,69.8428662 L255,76 L195,76 L195,2 Z M95,2 L162.198292,2 L162.198292,8.15545149 L101.570375,8.15545149 L101.570375,35.1004819 L158.171607,35.1004819 L158.171607,41.2559334 L101.570375,41.2559334 L101.570375,69.8428662 L163,69.8428662 L163,76 L95,76 L95,2 Z M68.6965618,2 L76,2 L41.3789421,44.1275802 L41.3789421,76 L34.7524566,76 L34.7524566,44.1275802 L0,2 L7.57122535,2 L38.2702821,38.5222333 L68.6965618,2 Z" id="Combined-Shape"></path>
                </g>
                <g id="Dates" transform="translate(332.000000, 0.000000)">
                    <path d="M119,59.5 C119,26.6390669 92.3609331,0 59.5,0 C26.6390669,0 0,26.6390669 0,59.5 C0,92.3609331 26.6390669,119 59.5,119 C92.3609331,119 119,92.3609331 119,59.5" id="Fill-5" fill="#FFFFFF"></path>
                    <g id="Fill-5">
                        <use fill="black" fill-opacity="1" filter="url(#filter-2)" xlink:href="#path-1"></use>
                        <use fill="#FFFFFF" fill-rule="evenodd" xlink:href="#path-1"></use>
                    </g>
                    <g id="Icon---Dates-FR" transform="translate(20.077073, 34.250680)">
                        <polygon id="Fill-8" fill="#1E1E1E" points="73.1331126 31.2821005 70.6338605 30.2355675 70.6338605 29.156407 78 29.156407 78 30.2355675 75.5008251 31.2821005 75.5008251 49.4980863 73.1659975 49.4980863 61.6564383 34.3235872 61.6564383 47.208872 64.1556132 48.2554051 64.1556132 49.3345655 56.7894737 49.3345655 56.7894737 48.2554051 59.2887258 47.208872 59.2887258 31.2821005 56.7894737 30.2355675 56.7894737 29.156407 62.7745248 29.156407 73.1331126 42.7611065"></polygon>
                        <polygon id="Fill-6" fill="#1E1E1E" points="52.6842105 29.156407 52.6842105 30.2443861 50.1026288 31.2993187 50.1026288 47.3550973 52.6842105 48.4101073 52.6842105 49.4980863 43.1052632 49.4980863 43.1052632 48.4101073 45.6868449 47.3550973 45.6868449 31.2993187 43.1052632 30.2443861 43.1052632 29.156407"></polygon>
                        <path d="M17.1052632,30.2505063 L17.1052632,29.156407 L26.1955103,29.156407 L26.1955103,30.2505063 L23.7456361,31.3114511 L23.7456361,42.3185977 C23.7456361,46.065059 25.1317492,48.3858758 28.4518978,48.3858758 C32.2234147,48.3858758 33.5450574,45.7666683 33.5450574,42.285521 L33.5450574,31.3114511 L31.0951832,30.2505063 L31.0951832,29.156407 L38.3157895,29.156407 L38.3157895,30.2505063 L35.8659152,31.3114511 L35.8659152,42.285521 C35.8659152,46.4629133 34.3830966,50.1761423 28.2263271,50.1761423 C21.9404656,50.1761423 19.5551374,46.9601534 19.5551374,42.6169885 L19.5551374,31.3114511 L17.1052632,30.2505063 Z" id="Fill-4" fill="#1E1E1E"></path>
                        <path d="M3.67300008,48.7173432 C6.14326012,48.7173432 6.98837518,47.4906258 6.98837518,43.4458516 L6.98837518,31.3114511 L4.51811514,30.2505063 L4.51811514,29.156407 L13.6842105,29.156407 L13.6842105,30.2505063 L11.2139505,31.3114511 L11.2139505,43.0148428 C11.2139505,47.4243946 9.16617169,50.1761423 4.16056646,50.1761423 C1.6577257,50.1761423 0,48.9162704 0,47.1922351 C0,45.5676633 1.07264604,44.7057235 2.21030093,44.7057235 C3.77051336,44.7057235 4.55054327,45.7666683 4.55054327,46.8607676 C4.55054327,47.8553256 3.99804433,48.3526434 3.3154514,48.6841887 C3.4454691,48.7173432 3.5754868,48.7173432 3.67300008,48.7173432" id="Fill-1" fill="#1E1E1E"></path>
                        <path d="M78,22.3758472 L4.10526316,22.3758472" id="Stroke-24" stroke="#1E1E1E" stroke-width="2"></path>
                        <path d="M73.0542806,9.67607739 L73.0542806,2.96443454 L68.1812854,9.67607739 L73.0542806,9.67607739 Z M76.1575218,13.3756794 L78,14.1346115 L78,14.9172315 L71.2117238,14.9172315 L71.2117238,14.1346115 L73.0542806,13.3756794 L73.0542806,11.3835978 L65.6842105,11.3835978 L65.6842105,10.4112448 L73.2482381,0 L76.1575218,0 L76.1575218,9.67607739 L77.8788454,9.67607739 L77.8788454,11.3835978 L76.1575218,11.3835978 L76.1575218,13.3756794 Z" id="Fill-22" fill="#1E1E1E"></path>
                        <path d="M53.2084851,4.32928803 L53.2084851,0.847026321 C54.3816072,0.376473099 56.0039688,0 57.6763538,0 C60.9211579,0 63.7417343,1.10584204 63.7417343,4.21163065 C63.7417343,7.34099652 60.3470218,9.43502321 56.4532892,12.3525753 L62.0194877,12.3525753 L63.0178516,10.2820495 L64.3157895,10.2820495 L64.3157895,14.9172315 L52.6842105,14.9172315 L52.6842105,14.0466279 C58.0257893,9.387945 60.322172,6.68213044 60.322172,4.23520791 C60.322172,2.28226325 59.3986004,1.27057763 57.3269184,1.27057763 C56.8277364,1.27057763 56.2286695,1.36465776 55.8543033,1.50581609 L54.506342,4.32928803 L53.2084851,4.32928803 Z" id="Fill-19" fill="#1E1E1E"></path>
                        <path d="M39.6842105,9.16763435 L39.6842105,8.8147277 L42.6165305,8.8147277 L42.6165305,9.16763435 L41.8262266,9.5098681 L41.8262266,13.060592 C41.8262266,14.2691219 42.2734141,15.0177826 43.3444221,15.0177826 C44.5610085,15.0177826 44.9873666,14.1729101 44.9873666,13.0498412 L44.9873666,9.5098681 L44.1970627,9.16763435 L44.1970627,8.8147277 L46.5263158,8.8147277 L46.5263158,9.16763435 L45.7360118,9.5098681 L45.7360118,13.0498412 C45.7360118,14.3974304 45.2576939,15.5952875 43.271633,15.5952875 C41.2439891,15.5952875 40.4745145,14.5579133 40.4745145,13.1568817 L40.4745145,9.5098681 L39.6842105,9.16763435 Z" id="Fill-17" fill="#1E1E1E"></path>
                        <path d="M34.5132899,12.9373384 L36.5290536,12.9373384 L35.5321842,10.4203711 L34.5132899,12.9373384 Z M39.6842105,15.2373012 L39.6842105,15.5952875 L36.5181209,15.5952875 L36.5181209,15.2373012 L37.3288154,14.9227001 L36.7919966,13.5990993 L34.3051699,13.5990993 L33.8121616,14.8901415 L34.6447215,15.2373012 L34.6447215,15.5952875 L32.1578947,15.5952875 L32.1578947,15.2373012 L33.0234123,14.8901415 L35.4992265,8.8147277 L36.3209335,8.8147277 L38.9282592,14.9227001 L39.6842105,15.2373012 Z" id="Fill-15" fill="#1E1E1E"></path>
                        <path d="M22.2293629,3.46004927 C22.2293629,2.15392024 21.445825,1.23739322 19.8298377,1.23739322 C18.6546102,1.23739322 17.5038386,1.92482564 17.5038386,3.276729 C17.5038386,4.62870667 18.6300751,5.22444181 20.4664821,6.00357151 C21.4703602,5.40776207 22.2293629,4.74329113 22.2293629,3.46004927 M16.9407204,10.9529958 C16.9407204,12.5570295 18.1159478,13.6798383 20.0258015,13.6798383 C21.8131382,13.6798383 22.8414721,12.671614 22.8414721,11.273862 C22.8414721,9.78441267 21.2744757,9.11994172 18.728057,8.18037892 C17.7241789,8.73033972 16.9407204,9.55524376 16.9407204,10.9529958 M25.4123466,3.32257764 C25.4123466,5.22444181 23.527028,6.25562759 22.0580136,6.7138911 C24.8737635,7.79085122 26,9.16571606 26,10.9301086 C26,13.3360849 23.62501,14.9172315 19.8788286,14.9172315 C15.4226356,14.9172315 13.6842105,12.9695187 13.6842105,11.2051262 C13.6842105,8.91365998 15.8878513,7.90543567 17.283419,7.44717216 C15.1777601,6.3243634 14.3942223,5.17859316 14.3942223,3.64336953 C14.3942223,1.37486484 16.8917294,0 19.8788286,0 C23.8208944,0 25.4123466,1.60395944 25.4123466,3.32257764" id="Fill-12" fill="#1E1E1E"></path>
                        <polygon id="Fill-10" fill="#1E1E1E" points="12.3157895 14.2489561 12.3157895 14.9172315 4.74783682 14.9172315 4.74783682 14.2489561 6.98488226 13.4851686 6.98488226 2.19585041 4.22426971 2.67317891 4.10526316 1.62300977 8.07963454 0 10.078744 0 10.078744 13.5090853"></polygon>
                    </g>
                </g>
            </g>
        </g>
    </g>
</svg>