<?xml version="1.0" encoding="UTF-8"?>
<svg width="278px" height="25px" viewBox="0 0 278 25" version="1.1" xmlns="http://www.w3.org/2000/svg" xmlns:xlink="http://www.w3.org/1999/xlink">
    <!-- Generator: Sketch 50.2 (55047) - http://www.bohemiancoding.com/sketch -->
    <title>logo-yelloweek-blanc</title>
    <desc>Created with Sketch.</desc>
    <defs></defs>
    <g id="YelloWeek---01---City-selector---EN" stroke="none" stroke-width="1" fill="none" fill-rule="evenodd">
        <g id="YelloWeek---01---City-selector---EN/SM---320" transform="translate(-21.000000, -74.000000)" fill="#FFFFFF">
            <g id="logo-yelloweek-blanc" transform="translate(21.000000, 74.000000)">
                <path d="M265.767907,10.9378453 L278,25 L275.373048,25 L264.259754,12.2680565 L257.15337,18.5671903 L257.15337,25 L255,25 L255,1 L257.15337,1 L257.15337,16.1271967 L273.822516,1 L276.966489,1 L265.767907,10.9378453 Z M224,1 L245.740097,1 L245.740097,2.99586241 L226.125658,2.99586241 L226.125658,11.7355355 L244.437377,11.7355355 L244.437377,13.7319435 L226.125658,13.7319435 L226.125658,23.003592 L246,23.003592 L246,25 L224,25 L224,1 Z M190,1 L211.739563,1 L211.739563,2.99586241 L192.125658,2.99586241 L192.125658,11.7355355 L210.437377,11.7355355 L210.437377,13.7319435 L192.125658,13.7319435 L192.125658,23.003592 L212,23.003592 L212,25 L190,25 L190,1 Z M183,1 L174.143339,25 L168.55957,25 L163.412007,10.226908 L158.220449,25 L152.63668,25 L144,1 L150.673481,1 L155.691201,16.2608725 L160.664388,1 L166.596371,1 L171.438642,16.2172233 L176.411829,1 L183,1 Z M112,12.5223117 C112,6.15150196 116.961777,0 126.02149,0 C134.995774,0 140,6.15150196 140,12.5223117 C140,18.9818241 134.995774,25 126.02149,25 C116.961777,25 112,18.9818241 112,12.5223117 Z M138,12.5226617 C138,7.2389422 133.743946,2 126.021855,2 C118.211804,2 114,7.2389422 114,12.5226617 C114,17.9390748 118.211804,23 126.021855,23 C133.743946,23 138,17.9390748 138,12.5226617 Z M90,1 L92.0962577,1 L92.0962577,23.0030918 L109,23.0030918 L109,25 L90,25 L90,1 Z M62,1 L64.0962577,1 L64.0962577,23.0030918 L81,23.0030918 L81,25 L62,25 L62,1 Z M31,1 L52.7406239,1 L52.7406239,2.99636264 L33.1257096,2.99636264 L33.1257096,11.7352914 L51.437873,11.7352914 L51.437873,13.7316541 L33.1257096,13.7316541 L33.1257096,23.0030918 L53,23.0030918 L53,25 L31,25 L31,1 Z M22.5975532,1 L25,1 L13.6114941,14.662999 L13.6114941,25 L11.4317291,25 L11.4317291,14.662999 L0,1 L2.49053466,1 L12.5889086,12.8450486 L22.5975532,1 Z" id="Logo-YelloWeek"></path>
            </g>
        </g>
    </g>
</svg>