<?xml version="1.0" encoding="UTF-8"?>
<svg width="861px" height="122px" viewBox="0 0 861 122" version="1.1" xmlns="http://www.w3.org/2000/svg" xmlns:xlink="http://www.w3.org/1999/xlink">
    <!-- Generator: Sketch 50.2 (55047) - http://www.bohemiancoding.com/sketch -->
    <title>Icon - YelloWeek logo</title>
    <desc>Created with Sketch.</desc>
    <defs>
        <path d="M112,59 C112,29.7289167 88.2710833,6 59,6 C29.7289167,6 6,29.7289167 6,59 C6,88.2710833 29.7289167,112 59,112 C88.2710833,112 112,88.2710833 112,59" id="path-1"></path>
        <filter x="-12.3%" y="-10.4%" width="124.5%" height="124.5%" filterUnits="objectBoundingBox" id="filter-2">
            <feOffset dx="0" dy="2" in="SourceAlpha" result="shadowOffsetOuter1"></feOffset>
            <feGaussianBlur stdDeviation="4" in="shadowOffsetOuter1" result="shadowBlurOuter1"></feGaussianBlur>
            <feColorMatrix values="0 0 0 0 0   0 0 0 0 0   0 0 0 0 0  0 0 0 0.1 0" type="matrix" in="shadowBlurOuter1"></feColorMatrix>
        </filter>
    </defs>
    <g id="YelloWeek---01---City-selector---EN" stroke="none" stroke-width="1" fill="none" fill-rule="evenodd">
        <g id="YelloWeek---01---City-selector---EN/LG---960" transform="translate(-210.000000, -236.000000)">
            <g id="Icon---YelloWeek-logo" transform="translate(210.000000, 236.000000)">
                <g id="YelloWeek-logo" transform="translate(0.000000, 21.000000)" fill="#FFFFFF">
                    <path d="M822.708232,32.6416896 L861,76 L852.776498,76 L817.987056,36.7431741 L795.740983,56.1655034 L795.740983,76 L789,76 L789,2 L795.740983,2 L795.740983,48.6421897 L847.922659,2 L857.76466,2 L822.708232,32.6416896 Z M691,2 L758.196662,2 L758.196662,8.15390911 L697.570216,8.15390911 L697.570216,35.1012345 L754.170075,35.1012345 L754.170075,41.2568259 L697.570216,41.2568259 L697.570216,69.8444086 L759,69.8444086 L759,76 L691,76 L691,2 Z M592,2 L659.195012,2 L659.195012,8.15390911 L598.570216,8.15390911 L598.570216,35.1012345 L655.170075,35.1012345 L655.170075,41.2568259 L598.570216,41.2568259 L598.570216,69.8444086 L660,69.8444086 L660,76 L592,76 L592,2 Z M569,2 L541.52164,76 L524.197639,76 L508.226998,30.4496328 L492.119855,76 L474.795854,76 L448,2 L468.704903,2 L484.2727,49.054357 L499.702331,2 L518.106689,2 L533.130145,48.9197718 L548.559776,2 L569,2 Z M348,38.5687201 C348,18.946626 363.594156,0 392.06754,0 C420.272433,0 436,18.946626 436,38.5687201 C436,58.4640183 420.272433,77 392.06754,77 C363.594156,77 348,58.4640183 348,38.5687201 Z M278,2 L284.619761,2 L284.619761,69.8428662 L338,69.8428662 L338,76 L278,76 L278,2 Z M195,2 L201.619761,2 L201.619761,69.8428662 L255,69.8428662 L255,76 L195,76 L195,2 Z M95,2 L162.198292,2 L162.198292,8.15545149 L101.570375,8.15545149 L101.570375,35.1004819 L158.171607,35.1004819 L158.171607,41.2559334 L101.570375,41.2559334 L101.570375,69.8428662 L163,69.8428662 L163,76 L95,76 L95,2 Z M68.6965618,2 L76,2 L41.3789421,44.1275802 L41.3789421,76 L34.7524566,76 L34.7524566,44.1275802 L0,2 L7.57122535,2 L38.2702821,38.5222333 L68.6965618,2 Z" id="Combined-Shape"></path>
                </g>
                <g id="Dates" transform="translate(332.000000, 0.000000)">
                    <path d="M119,59.5 C119,26.6390669 92.3609331,0 59.5,0 C26.6390669,0 0,26.6390669 0,59.5 C0,92.3609331 26.6390669,119 59.5,119 C92.3609331,119 119,92.3609331 119,59.5" id="Fill-5" fill="#FFFFFF"></path>
                    <g id="Fill-5">
                        <use fill="black" fill-opacity="1" filter="url(#filter-2)" xlink:href="#path-1"></use>
                        <use fill="#FFFFFF" fill-rule="evenodd" xlink:href="#path-1"></use>
                    </g>
                    <g id="Icon---Dates-EN" transform="translate(18.077073, 37.202218)">
                        <polygon id="Fill-31" fill="#1E1E1E" points="82 34.1131354 81.3254863 34.3995008 81.3254863 38.7575203 82 39.0438857 82 39.3391528 79.4974314 39.3391528 79.4974314 39.0438857 80.1718703 38.7575203 80.1718703 36.7619398 77.6781297 36.7619398 77.6781297 38.7575203 78.3525686 39.0438857 78.3525686 39.3391528 75.85 39.3391528 75.85 39.0438857 76.5245137 38.7575203 76.5245137 34.3995008 75.85 34.1131354 75.85 33.8178682 78.3525686 33.8178682 78.3525686 34.1131354 77.6781297 34.3995008 77.6781297 36.2160652 80.1718703 36.2160652 80.1718703 34.3995008 79.4974314 34.1131354 79.4974314 33.8178682 82 33.8178682"></polygon>
                        <polygon id="Fill-29" fill="#1E1E1E" points="75.85 33.8178682 75.85 35.2138618 75.3789448 35.2138618 74.9621893 34.3726446 74.0472669 34.3726446 74.0472669 38.7575203 74.7356734 39.0438857 74.7356734 39.3391528 72.1809932 39.3391528 72.1809932 39.0438857 72.8695525 38.7575203 72.8695525 34.3726446 71.9544774 34.3726446 71.5377982 35.2138618 71.0666667 35.2138618 71.0666667 33.8178682"></polygon>
                        <path d="M65.8582788,41.8759913 L65.8582788,36.2867024 L62.0730297,41.8759913 L65.8582788,41.8759913 Z M68.2687636,44.9569381 L69.7,45.5889899 L69.7,46.2407586 L64.4270425,46.2407586 L64.4270425,45.5889899 L65.8582788,44.9569381 L65.8582788,43.2979782 L60.1333333,43.2979782 L60.1333333,42.4882521 L66.0089651,33.8178682 L68.2687636,33.8178682 L68.2687636,41.8759913 L69.6058565,41.8759913 L69.6058565,43.2979782 L68.2687636,43.2979782 L68.2687636,44.9569381 Z" id="Fill-27" fill="#1E1E1E"></path>
                        <path d="M50.314417,37.4232186 L50.314417,34.5231861 C51.2792893,34.1313674 52.6137609,33.8178682 53.989145,33.8178682 C56.6580111,33.8178682 58.9777727,34.7388041 58.9777727,37.3252639 C58.9777727,39.9312852 56.1858609,41.6752022 52.9832831,44.1049492 L57.561322,44.1049492 L58.3824998,42.3806672 L59.45,42.3806672 L59.45,46.2407586 L49.8833333,46.2407586 L49.8833333,45.5158056 C54.2766111,41.6360792 56.1652891,39.3827536 56.1652891,37.3448989 C56.1652891,35.7184981 55.4057497,34.8759554 53.7018329,34.8759554 C53.291244,34.8759554 52.7984449,34.9543485 52.4905611,35.0718648 L51.3819172,37.4232186 L50.314417,37.4232186 Z" id="Fill-25" fill="#1E1E1E"></path>
                        <path d="M43.9393685,42.8535531 C43.9393685,41.2930393 43.2496541,40.4872576 42.3414263,40.4872576 C41.5256519,40.4872576 40.793894,41.1912263 40.793894,42.6923968 C40.793894,44.2275288 41.5087778,45.0925823 42.4002732,45.0925823 C43.241288,45.0925823 43.9393685,44.2275288 43.9393685,42.8535531 M39.6333333,42.8111548 C39.6333333,40.767172 41.0967075,40.0293134 42.4002732,40.0293134 C43.9730459,40.0293134 45.1,40.8095703 45.1,42.7008335 C45.1,44.7448164 43.6281888,45.550598 42.3161859,45.550598 C40.7770907,45.550598 39.6333333,44.6685281 39.6333333,42.8111548" id="Fill-23" fill="#1E1E1E"></path>
                        <polygon id="Fill-21" fill="#1E1E1E" points="38.95 40.0293134 38.95 41.425307 38.4789373 41.425307 38.0621751 40.5840898 37.1471617 40.5840898 37.1471617 44.9689655 37.835732 45.2553309 37.835732 45.550598 35.2809347 45.550598 35.2809347 45.2553309 35.9695049 44.9689655 35.9695049 40.5840898 35.0544916 40.5840898 34.6377294 41.425307 34.1666667 41.425307 34.1666667 40.0293134"></polygon>
                        <polygon id="Fill-19" fill="#1E1E1E" points="30.0666667 34.1131354 29.3922278 34.3995008 29.3922278 38.7575203 30.0666667 39.0438857 30.0666667 39.3391528 27.5640981 39.3391528 27.5640981 39.0438857 28.238537 38.7575203 28.238537 36.7619398 25.7447963 36.7619398 25.7447963 38.7575203 26.4193101 39.0438857 26.4193101 39.3391528 23.9166667 39.3391528 23.9166667 39.0438857 24.5911804 38.7575203 24.5911804 34.3995008 23.9166667 34.1131354 23.9166667 33.8178682 26.4193101 33.8178682 26.4193101 34.1131354 25.7447963 34.3995008 25.7447963 36.2160652 28.238537 36.2160652 28.238537 34.3995008 27.5640981 34.1131354 27.5640981 33.8178682 30.0666667 33.8178682"></polygon>
                        <polygon id="Fill-17" fill="#1E1E1E" points="23.2333333 33.8178682 23.2333333 35.2138618 22.7622706 35.2138618 22.3455084 34.3726446 21.4304951 34.3726446 21.4304951 38.7575203 22.1190653 39.0438857 22.1190653 39.3391528 19.564268 39.3391528 19.564268 39.0438857 20.2528383 38.7575203 20.2528383 34.3726446 19.3378249 34.3726446 18.9210627 35.2138618 18.45 35.2138618 18.45 33.8178682"></polygon>
                        <path d="M14.8377209,36.6993159 C14.8377209,35.6115663 14.2291328,34.8483226 12.9738398,34.8483226 C12.0608864,34.8483226 11.1669915,35.4207733 11.1669915,36.5466958 C11.1669915,37.6726182 12.0418992,38.1687231 13.4682908,38.8175197 C14.24812,38.3213432 14.8377209,37.7680148 14.8377209,36.6993159 M10.7295733,42.9394087 C10.7295733,44.2751748 11.6424553,45.2103043 13.1260225,45.2103043 C14.5143683,45.2103043 15.3131847,44.370643 15.3131847,43.2065476 C15.3131847,41.9661779 14.0959373,41.4127778 12.1179906,40.6304118 C11.3381613,41.0884153 10.7295733,41.7753849 10.7295733,42.9394087 M17.31019,36.5847971 C17.31019,38.1687231 15.8457528,39.0274351 14.7045967,39.4090928 C16.8917589,40.3059776 17.7666667,41.4510224 17.7666667,42.920358 C17.7666667,44.9240431 15.9218441,46.2407586 13.0118854,46.2407586 C9.55037158,46.2407586 8.2,44.6187312 8.2,43.1493956 C8.2,41.2410355 9.91176978,40.4013742 10.9958216,40.0197165 C9.36021459,39.0847303 8.75155519,38.1305502 8.75155519,36.8520076 C8.75155519,34.9628413 10.6915276,33.8178682 13.0118854,33.8178682 C16.0739554,33.8178682 17.31019,35.1536344 17.31019,36.5847971" id="Fill-14" fill="#1E1E1E"></path>
                        <polygon id="Fill-12" fill="#1E1E1E" points="6.83333333 45.6841791 6.83333333 46.2407586 0.534847249 46.2407586 0.534847249 45.6841791 2.39659142 45.0481522 2.39659142 35.646427 0.0990898377 36.0439624 0 35.1694441 3.30772731 33.8178682 4.97151482 33.8178682 4.97151482 45.0679954"></polygon>
                        <path d="M82,26.2261019 L0,26.2261019" id="Stroke-33" stroke="#1E1E1E" stroke-width="2"></path>
                        <polygon id="Fill-9" fill="#1E1E1E" points="77.7061196 12.3401096 76.7958797 10.3669214 71.8502428 10.3669214 71.8502428 17.3826283 78.3432163 17.3826283 79.7389175 14.4385797 81.3166667 14.4385797 81.3166667 19.3244961 65.6 19.3244961 65.6 18.2909213 67.9059411 17.2887405 67.9059411 2.03582915 65.6 1.0335748 65.6 0 80.8312054 0 80.8312054 4.88591644 79.2535274 4.88591644 77.8578262 1.9418678 71.8502428 1.9418678 71.8502428 8.45644756 76.7958797 8.45644756 77.7061196 6.51465328 78.9804555 6.51465328 78.9804555 12.3401096"></polygon>
                        <polygon id="Fill-7" fill="#1E1E1E" points="56.9529424 2.09151984 54.6179298 1.06181135 54.6179298 0 61.5 0 61.5 1.06181135 59.1650595 2.09151984 59.1650595 20.0146567 56.9836662 20.0146567 46.2304631 5.08411015 46.2304631 17.7622449 48.5654035 18.7919534 48.5654035 19.8537648 41.6833333 19.8537648 41.6833333 18.7919534 44.0183459 17.7622449 44.0183459 2.09151984 41.6833333 1.06181135 41.6833333 0 47.275074 0 56.9529424 13.3859838"></polygon>
                        <path d="M17.0833333,1.04178392 L17.0833333,0 L25.8690685,0 L25.8690685,1.04178392 L23.501262,2.05199864 L23.501262,12.5328281 C23.501262,16.1001488 24.840942,18.3099935 28.0498698,18.3099935 C31.6950456,18.3099935 32.9724149,15.8160259 32.9724149,12.501333 L32.9724149,2.05199864 L30.6046084,1.04178392 L30.6046084,0 L37.5833333,0 L37.5833333,1.04178392 L35.2155268,2.05199864 L35.2155268,12.501333 C35.2155268,16.4789793 33.7823808,20.0146567 27.8318555,20.0146567 C21.7565625,20.0146567 19.4511398,16.9524434 19.4511398,12.816951 L19.4511398,2.05199864 L17.0833333,1.04178392 Z" id="Fill-4" fill="#1E1E1E"></path>
                        <path d="M3.66829111,18.6256115 C6.13538414,18.6256115 6.97941572,17.4575507 6.97941572,13.6061812 L6.97941572,2.05199864 L4.51232269,1.04178392 L4.51232269,0 L13.6666667,0 L13.6666667,1.04178392 L11.1995736,2.05199864 L11.1995736,13.1957815 C11.1995736,17.3944864 9.15442018,20.0146567 4.1552324,20.0146567 C1.65560041,20.0146567 0,18.8150267 0,17.1734278 C0,15.6265365 1.07127085,14.8058112 2.20746721,14.8058112 C3.76567936,14.8058112 4.54470924,15.8160259 4.54470924,16.8578098 C4.54470924,17.804812 3.99291864,18.2783502 3.31120082,18.5940423 C3.44105183,18.6256115 3.57090285,18.6256115 3.66829111,18.6256115" id="Fill-1" fill="#1E1E1E"></path>
                    </g>
                </g>
            </g>
        </g>
    </g>
</svg>