<?xml version="1.0" encoding="UTF-8"?>
<svg width="295px" height="26px" viewBox="0 0 295 26" version="1.1" xmlns="http://www.w3.org/2000/svg" xmlns:xlink="http://www.w3.org/1999/xlink">
    <!-- Generator: Sketch 50.2 (55047) - http://www.bohemiancoding.com/sketch -->
    <title>Logo YelloWeek</title>
    <desc>Created with Sketch.</desc>
    <defs></defs>
    <g id="YelloWeek---02---City-page---Full-program---Short-example---English" stroke="none" stroke-width="1" fill="none" fill-rule="evenodd">
        <g id="YelloWeek---02---City-page---Full-program---Short-example---English/LG---960" transform="translate(-493.000000, -350.000000)" fill="#1E1E1E">
            <g id="01---Introduction" transform="translate(0.000000, 80.000000)">
                <path d="M775.236077,281.351922 L788,296 L785.258833,296 L773.662352,282.737559 L766.246994,289.299157 L766.246994,296 L764,296 L764,271 L766.246994,271 L766.246994,286.757497 L783.640886,271 L786.921553,271 L775.236077,281.351922 Z M731,271 L753.728283,271 L753.728283,273.079023 L733.222279,273.079023 L733.222279,282.182849 L752.366349,282.182849 L752.366349,284.262441 L733.222279,284.262441 L733.222279,293.920408 L754,293.920408 L754,296 L731,296 L731,271 Z M695,271 L717.727725,271 L717.727725,273.079023 L697.222279,273.079023 L697.222279,282.182849 L716.366349,282.182849 L716.366349,284.262441 L697.222279,284.262441 L697.222279,293.920408 L718,293.920408 L718,296 L695,296 L695,271 Z M687,271 L677.689151,296 L671.819035,296 L666.407495,280.611362 L660.949703,296 L655.079587,296 L646,271 L653.015711,271 L658.29075,286.896742 L663.518971,271 L669.755159,271 L674.845752,286.851274 L680.073974,271 L687,271 Z M612,283.023204 C612,276.397562 617.316189,270 627.023025,270 C636.638329,270 642,276.397562 642,283.023204 C642,289.741097 636.638329,296 627.023025,296 C617.316189,296 612,289.741097 612,283.023204 Z M639.642366,283.023204 C639.642366,277.547018 635.158483,272.11724 627.023025,272.11724 C618.794899,272.11724 614.357634,277.547018 614.357634,283.023204 C614.357634,288.636918 618.794899,293.882194 627.023025,293.882194 C635.158483,293.882194 639.642366,288.636918 639.642366,283.023204 Z M589,271 L591.206587,271 L591.206587,293.919887 L609,293.919887 L609,296 L589,296 L589,271 Z M559,271 L561.206587,271 L561.206587,293.919887 L579,293.919887 L579,296 L559,296 L559,271 Z M526,271 L548.728834,271 L548.728834,273.079544 L528.222333,273.079544 L528.222333,282.182595 L547.366867,282.182595 L547.366867,284.26214 L528.222333,284.26214 L528.222333,293.919887 L549,293.919887 L549,296 L526,296 L526,271 Z M517.405357,271 L520,271 L507.700414,285.232291 L507.700414,296 L505.346267,296 L505.346267,285.232291 L493,271 L495.689777,271 L506.596021,283.338592 L517.405357,271 Z" id="Logo-YelloWeek"></path>
            </g>
        </g>
    </g>
</svg>