<?xml version="1.0" encoding="UTF-8"?>
<svg width="274px" height="71px" viewBox="0 0 274 71" version="1.1" xmlns="http://www.w3.org/2000/svg" xmlns:xlink="http://www.w3.org/1999/xlink">
    <!-- Generator: Sketch 50.2 (55047) - http://www.bohemiancoding.com/sketch -->
    <title>titre popup</title>
    <desc>Created with Sketch.</desc>
    <defs></defs>
    <g id="titre-popup" stroke="none" stroke-width="1" fill="none" fill-rule="evenodd">
        <path d="M56.45,58.25 L56.45,70 L48.8,70 L48.8,36.2 L69.45,36.2 C78.35,36.2 82.85,41.65 82.85,47.05 C82.85,52.55 78.35,58.25 69.4,58.25 L56.45,58.25 Z M56.45,52 L69.2,52 C73,52 74.95,49.65 74.95,47.05 C74.95,44.5 73,42.35 69.2,42.35 L56.45,42.35 L56.45,52 Z M107.05,70.6 C93.9,70.6 86.6,62.2 86.6,53.1 C86.6,44.15 93.9,35.6 107.05,35.6 C120.2,35.6 127.45,44.15 127.45,53.1 C127.45,62.2 120.2,70.6 107.05,70.6 Z M107.05,42.15 C98.3,42.15 94.5,47.65 94.5,53.1 C94.5,58.55 98.3,64.05 107.05,64.05 C115.8,64.05 119.55,58.55 119.55,53.1 C119.55,47.65 115.8,42.15 107.05,42.15 Z M142.85,58.25 L142.85,70 L135.2,70 L135.2,36.2 L155.85,36.2 C164.75,36.2 169.25,41.65 169.25,47.05 C169.25,52.55 164.75,58.25 155.8,58.25 L142.85,58.25 Z M142.85,52 L155.6,52 C159.4,52 161.35,49.65 161.35,47.05 C161.35,44.5 159.4,42.35 155.6,42.35 L142.85,42.35 L142.85,52 Z M187.25,58.7 L173.25,58.7 L173.25,52.9 L187.25,52.9 L187.25,58.7 Z M211.7,70.6 C200.65,70.6 194.75,64.55 194.75,57.05 L194.75,36.2 L202.4,36.2 L202.4,56.65 C202.4,60.65 205.3,64.05 211.7,64.05 C218.1,64.05 221,60.65 221,56.65 L221,36.2 L228.65,36.2 L228.65,57.05 C228.65,64.55 222.75,70.6 211.7,70.6 Z M246.8,58.25 L246.8,70 L239.15,70 L239.15,36.2 L259.8,36.2 C268.7,36.2 273.2,41.65 273.2,47.05 C273.2,52.55 268.7,58.25 259.75,58.25 L246.8,58.25 Z M246.8,52 L259.55,52 C263.35,52 265.3,49.65 265.3,47.05 C265.3,44.5 263.35,42.35 259.55,42.35 L246.8,42.35 L246.8,52 Z" id="POP-UP" fill="#1E1E1E"></path>
        <path d="M25.826,12.693 L22.817,6.624 C21.695,6.522 20.267,6.42 19.553,6.42 C11.801,6.42 7.058,11.469 7.058,19.68 C7.058,28.86 13.739,34.113 20.522,34.113 C21.389,34.113 22.613,34.062 23.582,33.858 L26.234,28.35 L28.886,28.35 L28.886,35.796 C26.081,36.408 23.174,36.867 19.553,36.867 C8.945,36.867 0.02,31.002 0.02,20.394 C0.02,7.848 10.526,3.666 19.859,3.666 C22.511,3.666 25.877,4.074 28.478,4.737 L28.478,12.693 L25.826,12.693 Z M42.503,0.453 L42.503,32.838 L46.073,34.623 L46.073,36 L32.813,36 L32.813,34.623 L36.383,32.838 L36.383,5.145 L32.456,3.564 L32.456,2.187 L42.503,0.453 Z M58.313,11.214 L58.313,32.838 L61.883,34.623 L61.883,36 L48.623,36 L48.623,34.623 L52.193,32.838 L52.193,15.906 L48.266,14.325 L48.266,12.948 L58.313,11.214 Z M55.253,7.542 C53.111,7.542 51.785,6.012 51.785,4.125 C51.785,2.238 53.111,0.708 55.253,0.708 C57.395,0.708 58.721,2.238 58.721,4.125 C58.721,6.012 57.395,7.542 55.253,7.542 Z M85.088,31.767 L85.598,33.807 C82.691,34.98 78.611,36.867 75.602,36.867 C68.513,36.867 64.433,32.379 64.433,24.729 C64.433,16.11 70.91,11.214 77.846,11.214 C81.977,11.214 85.088,12.999 85.088,16.059 C85.088,18.354 83.711,19.782 81.518,19.782 C79.529,19.782 78.05,18.354 78.05,16.467 C78.05,15.192 78.611,14.172 79.58,13.611 C79.223,13.509 78.611,13.458 77.897,13.458 C73.868,13.458 71.063,17.028 71.063,23.403 C71.063,28.758 72.899,32.838 78.152,32.838 C80.294,32.838 82.436,32.43 85.088,31.767 Z M104.417,32.277 L104.417,13.56 C103.907,13.509 103.397,13.458 102.887,13.458 C97.43,13.458 94.472,17.538 94.472,23.964 C94.472,30.135 97.073,32.634 101.408,32.634 C102.326,32.634 103.346,32.481 104.417,32.277 Z M110.537,11.214 L110.537,42.579 L114.107,44.364 L114.107,45.741 L100.847,45.741 L100.847,44.364 L104.417,42.579 L104.417,34.266 C100.592,35.898 98.909,36.867 96.41,36.867 C91.412,36.867 87.842,32.481 87.842,25.29 C87.842,16.62 93.35,11.214 100.796,11.214 C103.142,11.214 105.131,11.571 106.559,12.183 L110.537,11.214 Z M134.558,15.906 L130.631,14.325 L130.631,12.948 L140.678,11.214 L140.678,31.257 L143.84,35.439 L142.565,36.867 L134.558,34.266 L130.937,35.796 C129.356,36.459 127.877,36.867 126.449,36.867 C121.094,36.867 119.36,33.96 119.36,30.084 L119.36,15.906 L115.433,14.325 L115.433,12.948 L125.48,11.214 L125.48,29.115 C125.48,31.92 127.061,32.736 130.07,32.736 C131.396,32.736 133.079,32.583 134.558,32.277 L134.558,15.906 Z M159.344,11.214 C166.79,11.214 171.533,15.396 171.533,23.607 C171.533,32.634 165.209,36.867 158.936,36.867 C151.592,36.867 146.798,32.379 146.798,24.117 C146.798,15.09 153.122,11.214 159.344,11.214 Z M158.987,13.458 C155.774,13.458 153.428,16.365 153.428,23.505 C153.428,31.41 155.774,34.623 159.344,34.623 C162.557,34.623 164.903,31.002 164.903,24.321 C164.903,16.722 162.506,13.458 158.987,13.458 Z M191.678,32.583 L191.831,34.827 C188.363,36 185.711,36.867 183.008,36.867 C178.367,36.867 177.398,34.011 177.398,30.9 L177.398,14.733 L173.573,14.733 L173.573,12.846 L177.398,12.081 L181.478,5.349 L183.518,5.349 L183.518,11.928 L191.015,11.928 L191.015,14.733 L183.518,14.733 L183.518,30.441 C183.518,32.634 184.385,33.348 186.527,33.348 C187.598,33.348 189.638,32.991 191.678,32.583 Z" id="Clicquot" fill="#FFFFFF"></path>
    </g>
</svg>