<?xml version="1.0" encoding="UTF-8"?>
<svg width="339px" height="79px" viewBox="0 0 339 79" version="1.1" xmlns="http://www.w3.org/2000/svg" xmlns:xlink="http://www.w3.org/1999/xlink">
    <!-- Generator: Sketch 50.2 (55047) - http://www.bohemiancoding.com/sketch -->
    <title>plan-titre</title>
    <desc>Created with Sketch.</desc>
    <defs></defs>
    <g id="plan-titre" stroke="none" stroke-width="1" fill="none" fill-rule="evenodd">
        <path d="M88.35,41.8 L84.25,47.55 C80.85,45.7 78.05,44.15 73,44.15 C63.95,44.15 60.15,49.6 60.15,55 C60.15,60.45 63.9,66.05 73.25,66.05 C77.45,66.05 82.25,63.9 85.15,61.9 L89.25,67.5 C85.25,70.15 80.05,72.6 72.75,72.6 C59.5,72.6 52.25,64.2 52.25,55.1 C52.25,46.15 59.5,37.6 72.95,37.6 C79.7,37.6 84.45,39.5 88.35,41.8 Z M104.9,38.2 L104.9,72 L97.25,72 L97.25,38.2 L104.9,38.2 Z M111.65,38.2 L146.3,38.2 L146.3,44.4 L132.8,44.4 L132.8,72 L125.15,72 L125.15,44.4 L111.65,44.4 L111.65,38.2 Z M170.4,72 L162.7,72 L162.7,57.65 L147.55,38.2 L156.95,38.2 L167,51.45 L176.7,38.2 L185.6,38.2 L170.4,57.65 L170.4,72 Z M229.45,57.05 L244,38.2 L250.55,38.2 L250.55,72 L243.3,72 L243.3,50.6 L229.45,68.2 L215.6,50.6 L215.6,72 L208.35,72 L208.35,38.2 L214.9,38.2 L229.45,57.05 Z M280.35,38.2 L297.25,72 L288.55,72 L285.15,64.85 L267.6,64.85 L264.25,72 L256.55,72 L273.15,38.2 L280.35,38.2 Z M276.4,45.8 L270.55,58.8 L282.25,58.8 L276.4,45.8 Z M310.4,60.25 L310.4,72 L302.75,72 L302.75,38.2 L323.4,38.2 C332.3,38.2 336.8,43.65 336.8,49.05 C336.8,54.55 332.3,60.25 323.35,60.25 L310.4,60.25 Z M310.4,54 L323.15,54 C326.95,54 328.9,51.65 328.9,49.05 C328.9,46.5 326.95,44.35 323.15,44.35 L310.4,44.35 L310.4,54 Z" id="city-map" fill="#F7F7F7"></path>
        <path d="M13.821,13.214 C21.267,13.214 26.01,17.396 26.01,25.607 C26.01,34.634 19.686,38.867 13.413,38.867 C6.069,38.867 1.275,34.379 1.275,26.117 C1.275,17.09 7.599,13.214 13.821,13.214 Z M13.464,15.458 C10.251,15.458 7.905,18.365 7.905,25.505 C7.905,33.41 10.251,36.623 13.821,36.623 C17.034,36.623 19.38,33.002 19.38,26.321 C19.38,18.722 16.983,15.458 13.464,15.458 Z M25.704,13.928 L38.505,13.928 L38.505,15.305 L35.598,16.886 L40.188,30.248 L45.084,16.886 L42.177,15.305 L42.177,13.928 L51.765,13.928 L51.765,15.305 L48.501,16.886 L39.882,38.612 L37.383,38.612 L28.968,16.886 L25.704,15.305 L25.704,13.928 Z M58.242,22.853 L67.932,22.343 C67.932,18.569 66.861,15.458 63.699,15.458 C60.639,15.458 58.497,19.028 58.242,22.853 Z M74.409,25.046 L58.089,25.046 C58.089,30.758 59.925,34.838 65.178,34.838 C67.32,34.838 70.482,34.328 73.134,33.767 L73.644,35.807 C70.737,36.98 65.994,38.867 62.985,38.867 C55.896,38.867 51.459,34.838 51.459,26.729 C51.459,19.283 56.406,13.214 64.005,13.214 C71.706,13.214 74.409,17.957 74.409,22.904 L74.409,25.046 Z M87.21,13.214 L87.21,17.702 C89.25,15.815 92.361,13.52 95.676,13.214 L95.421,19.538 C92.718,19.334 91.035,19.283 87.21,19.691 L87.21,34.838 L90.78,36.623 L90.78,38 L77.52,38 L77.52,36.623 L81.09,34.838 L81.09,17.906 L77.163,16.325 L77.163,14.948 L87.21,13.214 Z M96.186,13.928 L108.987,13.928 L108.987,15.305 L106.08,16.886 L110.67,30.248 L115.566,16.886 L112.659,15.305 L112.659,13.928 L122.247,13.928 L122.247,15.305 L118.983,16.886 L110.364,38.612 L107.865,38.612 L99.45,16.886 L96.186,15.305 L96.186,13.928 Z M132.906,13.214 L132.906,34.838 L136.476,36.623 L136.476,38 L123.216,38 L123.216,36.623 L126.786,34.838 L126.786,17.906 L122.859,16.325 L122.859,14.948 L132.906,13.214 Z M129.846,9.542 C127.704,9.542 126.378,8.012 126.378,6.125 C126.378,4.238 127.704,2.708 129.846,2.708 C131.988,2.708 133.314,4.238 133.314,6.125 C133.314,8.012 131.988,9.542 129.846,9.542 Z M145.809,22.853 L155.499,22.343 C155.499,18.569 154.428,15.458 151.266,15.458 C148.206,15.458 146.064,19.028 145.809,22.853 Z M161.976,25.046 L145.656,25.046 C145.656,30.758 147.492,34.838 152.745,34.838 C154.887,34.838 158.049,34.328 160.701,33.767 L161.211,35.807 C158.304,36.98 153.561,38.867 150.552,38.867 C143.463,38.867 139.026,34.838 139.026,26.729 C139.026,19.283 143.973,13.214 151.572,13.214 C159.273,13.214 161.976,17.957 161.976,22.904 L161.976,25.046 Z M173.859,16.886 L177.837,30.044 L182.58,13.928 L186.762,13.928 L191.862,30.044 L196.146,16.886 L193.239,15.305 L193.239,13.928 L202.827,13.928 L202.827,15.305 L199.563,16.886 L191.862,38.663 L188.649,38.663 L183.243,22.241 L178.194,38.663 L174.624,38.663 L167.229,16.886 L163.965,15.305 L163.965,13.928 L176.766,13.928 L176.766,15.305 L173.859,16.886 Z" id="overview" fill="#FFA616"></path>
    </g>
</svg>