<?xml version="1.0" encoding="UTF-8"?>
<svg width="342px" height="79px" viewBox="0 0 342 79" version="1.1" xmlns="http://www.w3.org/2000/svg" xmlns:xlink="http://www.w3.org/1999/xlink">
    <!-- Generator: Sketch 50.2 (55047) - http://www.bohemiancoding.com/sketch -->
    <title>programme-titre-en</title>
    <desc>Created with Sketch.</desc>
    <defs></defs>
    <g id="programme-titre-en" stroke="none" stroke-width="1" fill="none" fill-rule="evenodd">
        <path d="M44.15,60.25 L44.15,72 L36.5,72 L36.5,38.2 L57.15,38.2 C66.05,38.2 70.55,43.65 70.55,49.05 C70.55,54.55 66.05,60.25 57.1,60.25 L44.15,60.25 Z M44.15,54 L56.9,54 C60.7,54 62.65,51.65 62.65,49.05 C62.65,46.5 60.7,44.35 56.9,44.35 L44.15,44.35 L44.15,54 Z M85.2,60.25 L85.2,72 L77.55,72 L77.55,38.2 L98.25,38.2 C107.15,38.2 111.6,43.65 111.6,49.05 C111.6,53.05 109.35,57.35 104.45,59.25 L112.5,72 L103.05,72 L96.2,60.25 L85.2,60.25 Z M85.2,54 L97.95,54 C101.75,54 103.7,51.65 103.7,49.05 C103.7,46.5 101.75,44.35 97.95,44.35 L85.2,44.35 L85.2,54 Z M136.85,72.6 C123.7,72.6 116.4,64.2 116.4,55.1 C116.4,46.15 123.7,37.6 136.85,37.6 C150,37.6 157.25,46.15 157.25,55.1 C157.25,64.2 150,72.6 136.85,72.6 Z M136.85,44.15 C128.1,44.15 124.3,49.65 124.3,55.1 C124.3,60.55 128.1,66.05 136.85,66.05 C145.6,66.05 149.35,60.55 149.35,55.1 C149.35,49.65 145.6,44.15 136.85,44.15 Z M200.25,52.45 L200.25,67.5 C195.55,70.35 189.5,72.6 182.3,72.6 C169,72.6 161.75,64.2 161.75,55.1 C161.75,46.15 169,37.6 182.5,37.6 C189.25,37.6 193.95,39.45 197.9,41.75 L193.75,47.5 C190.35,45.65 187.55,44.15 182.5,44.15 C173.45,44.15 169.65,49.6 169.65,55 C169.65,60.45 173.45,66.05 182.75,66.05 C186.65,66.05 190.3,64.8 192.6,63.4 L192.6,58.45 L179.7,58.45 L179.7,52.45 L200.25,52.45 Z M217.65,60.25 L217.65,72 L210,72 L210,38.2 L230.7,38.2 C239.6,38.2 244.05,43.65 244.05,49.05 C244.05,53.05 241.8,57.35 236.9,59.25 L244.95,72 L235.5,72 L228.65,60.25 L217.65,60.25 Z M217.65,54 L230.4,54 C234.2,54 236.15,51.65 236.15,49.05 C236.15,46.5 234.2,44.35 230.4,44.35 L217.65,44.35 L217.65,54 Z M271.9,38.2 L288.8,72 L280.1,72 L276.7,64.85 L259.15,64.85 L255.8,72 L248.1,72 L264.7,38.2 L271.9,38.2 Z M267.95,45.8 L262.1,58.8 L273.8,58.8 L267.95,45.8 Z M315.4,57.05 L329.95,38.2 L336.5,38.2 L336.5,72 L329.25,72 L329.25,50.6 L315.4,68.2 L301.55,50.6 L301.55,72 L294.3,72 L294.3,38.2 L300.85,38.2 L315.4,57.05 Z" id="PROGRAM" fill="#1E1E1E"></path>
        <path d="M18.87,34.583 L19.023,36.827 C15.555,38 12.903,38.867 10.2,38.867 C5.559,38.867 4.59,36.011 4.59,32.9 L4.59,16.733 L0.765,16.733 L0.765,14.846 L4.59,14.081 L8.67,7.349 L10.71,7.349 L10.71,13.928 L18.207,13.928 L18.207,16.733 L10.71,16.733 L10.71,32.441 C10.71,34.634 11.577,35.348 13.719,35.348 C14.79,35.348 16.83,34.991 18.87,34.583 Z M30.702,34.838 L34.272,36.623 L34.272,38 L21.012,38 L21.012,36.623 L24.582,34.838 L24.582,7.145 L20.655,5.564 L20.655,4.187 L30.702,2.453 L30.702,16.172 C33.609,14.846 36.822,13.214 39.015,13.214 C43.35,13.214 46.053,16.172 46.053,21.578 L46.053,34.838 L49.623,36.623 L49.623,38 L36.363,38 L36.363,36.623 L39.933,34.838 L39.933,22.649 C39.933,18.824 38.046,17.702 35.037,17.702 C33.762,17.702 32.283,17.855 30.702,18.161 L30.702,34.838 Z M58.446,22.853 L68.136,22.343 C68.136,18.569 67.065,15.458 63.903,15.458 C60.843,15.458 58.701,19.028 58.446,22.853 Z M74.613,25.046 L58.293,25.046 C58.293,30.758 60.129,34.838 65.382,34.838 C67.524,34.838 70.686,34.328 73.338,33.767 L73.848,35.807 C70.941,36.98 66.198,38.867 63.189,38.867 C56.1,38.867 51.663,34.838 51.663,26.729 C51.663,19.283 56.61,13.214 64.209,13.214 C71.91,13.214 74.613,17.957 74.613,22.904 L74.613,25.046 Z M109.191,13.928 L109.191,16.733 L101.694,16.733 L101.694,34.838 L105.264,36.623 L105.264,38 L92.004,38 L92.004,36.623 L95.574,34.838 L95.574,16.733 L91.749,16.733 L91.749,14.846 L95.574,14.081 L95.574,12.143 C95.574,5.564 100.521,2.555 105.927,2.555 C110.109,2.555 113.475,4.238 113.475,7.349 C113.475,9.644 112.098,11.072 109.905,11.072 C107.916,11.072 106.437,9.644 106.437,7.757 C106.437,6.482 107.049,5.462 107.916,4.952 C107.61,4.901 107.355,4.799 106.641,4.799 C103.887,4.799 101.694,6.482 101.694,10.919 L101.694,13.928 L109.191,13.928 Z M128.724,17.906 L124.797,16.325 L124.797,14.948 L134.844,13.214 L134.844,33.257 L138.006,37.439 L136.731,38.867 L128.724,36.266 L125.103,37.796 C123.522,38.459 122.043,38.867 120.615,38.867 C115.26,38.867 113.526,35.96 113.526,32.084 L113.526,17.906 L109.599,16.325 L109.599,14.948 L119.646,13.214 L119.646,31.115 C119.646,33.92 121.227,34.736 124.236,34.736 C125.562,34.736 127.245,34.583 128.724,34.277 L128.724,17.906 Z M150.654,2.453 L150.654,34.838 L154.224,36.623 L154.224,38 L140.964,38 L140.964,36.623 L144.534,34.838 L144.534,7.145 L140.607,5.564 L140.607,4.187 L150.654,2.453 Z M166.464,2.453 L166.464,34.838 L170.034,36.623 L170.034,38 L156.774,38 L156.774,36.623 L160.344,34.838 L160.344,7.145 L156.417,5.564 L156.417,4.187 L166.464,2.453 Z" id="the-full" fill="#FFA616"></path>
    </g>
</svg>