<?xml version="1.0" encoding="UTF-8"?>
<svg width="324px" height="79px" viewBox="0 0 324 79" version="1.1" xmlns="http://www.w3.org/2000/svg" xmlns:xlink="http://www.w3.org/1999/xlink">
    <!-- Generator: Sketch 50.2 (55047) - http://www.bohemiancoding.com/sketch -->
    <title>programme-titre</title>
    <desc>Created with Sketch.</desc>
    <defs></defs>
    <g id="programme-titre" stroke="none" stroke-width="1" fill="none" fill-rule="evenodd">
        <path d="M69.35,41.8 L65.25,47.55 C61.85,45.7 59.05,44.15 54,44.15 C44.95,44.15 41.15,49.6 41.15,55 C41.15,60.45 44.9,66.05 54.25,66.05 C58.45,66.05 63.25,63.9 66.15,61.9 L70.25,67.5 C66.25,70.15 61.05,72.6 53.75,72.6 C40.5,72.6 33.25,64.2 33.25,55.1 C33.25,46.15 40.5,37.6 53.95,37.6 C60.7,37.6 65.45,39.5 69.35,41.8 Z M93.7,72.6 C80.55,72.6 73.25,64.2 73.25,55.1 C73.25,46.15 80.55,37.6 93.7,37.6 C106.85,37.6 114.1,46.15 114.1,55.1 C114.1,64.2 106.85,72.6 93.7,72.6 Z M93.7,44.15 C84.95,44.15 81.15,49.65 81.15,55.1 C81.15,60.55 84.95,66.05 93.7,66.05 C102.45,66.05 106.2,60.55 106.2,55.1 C106.2,49.65 102.45,44.15 93.7,44.15 Z M142.95,57.05 L157.5,38.2 L164.05,38.2 L164.05,72 L156.8,72 L156.8,50.6 L142.95,68.2 L129.1,50.6 L129.1,72 L121.85,72 L121.85,38.2 L128.4,38.2 L142.95,57.05 Z M182.7,60.25 L182.7,72 L175.05,72 L175.05,38.2 L195.7,38.2 C204.6,38.2 209.1,43.65 209.1,49.05 C209.1,54.55 204.6,60.25 195.65,60.25 L182.7,60.25 Z M182.7,54 L195.45,54 C199.25,54 201.2,51.65 201.2,49.05 C201.2,46.5 199.25,44.35 195.45,44.35 L182.7,44.35 L182.7,54 Z M216.1,72 L216.1,38.2 L223.8,38.2 L223.8,65.75 L243.7,65.75 L243.7,72 L216.1,72 Z M250.95,72 L250.95,38.2 L282.2,38.2 L282.2,44.45 L258.6,44.45 L258.6,51.65 L280.25,51.65 L280.25,57.9 L258.6,57.9 L258.6,65.75 L282.6,65.75 L282.6,72 L250.95,72 Z M288.1,38.2 L322.75,38.2 L322.75,44.4 L309.25,44.4 L309.25,72 L301.6,72 L301.6,44.4 L288.1,44.4 L288.1,38.2 Z" id="COMPLET" fill="#1E1E1E"></path>
        <path d="M10.965,2.453 L10.965,34.838 L14.535,36.623 L14.535,38 L1.275,38 L1.275,36.623 L4.845,34.838 L4.845,7.145 L0.918,5.564 L0.918,4.187 L10.965,2.453 Z M23.868,22.853 L33.558,22.343 C33.558,18.569 32.487,15.458 29.325,15.458 C26.265,15.458 24.123,19.028 23.868,22.853 Z M40.035,25.046 L23.715,25.046 C23.715,30.758 25.551,34.838 30.804,34.838 C32.946,34.838 36.108,34.328 38.76,33.767 L39.27,35.807 C36.363,36.98 31.62,38.867 28.611,38.867 C21.522,38.867 17.085,34.838 17.085,26.729 C17.085,19.283 22.032,13.214 29.631,13.214 C37.332,13.214 40.035,17.957 40.035,22.904 L40.035,25.046 Z M67.116,15.815 C70.941,14.183 72.624,13.214 75.123,13.214 C80.121,13.214 83.691,17.651 83.691,24.842 C83.691,33.512 78.183,38.867 70.737,38.867 C69.564,38.867 68.238,38.816 67.116,38.663 L67.116,44.579 L70.686,46.364 L70.686,47.741 L57.426,47.741 L57.426,46.364 L60.996,44.579 L60.996,17.906 L57.069,16.325 L57.069,14.948 L67.116,13.214 L67.116,15.815 Z M67.116,17.804 L67.116,36.521 C67.626,36.572 68.136,36.623 68.646,36.623 C74.103,36.623 77.061,32.594 77.061,26.168 C77.061,19.997 74.46,17.447 70.125,17.447 C69.207,17.447 68.187,17.6 67.116,17.804 Z M95.88,13.214 L95.88,17.702 C97.92,15.815 101.031,13.52 104.346,13.214 L104.091,19.538 C101.388,19.334 99.705,19.283 95.88,19.691 L95.88,34.838 L99.45,36.623 L99.45,38 L86.19,38 L86.19,36.623 L89.76,34.838 L89.76,17.906 L85.833,16.325 L85.833,14.948 L95.88,13.214 Z M118.473,13.214 C125.919,13.214 130.662,17.396 130.662,25.607 C130.662,34.634 124.338,38.867 118.065,38.867 C110.721,38.867 105.927,34.379 105.927,26.117 C105.927,17.09 112.251,13.214 118.473,13.214 Z M118.116,15.458 C114.903,15.458 112.557,18.365 112.557,25.505 C112.557,33.41 114.903,36.623 118.473,36.623 C121.686,36.623 124.032,33.002 124.032,26.321 C124.032,18.722 121.635,15.458 118.116,15.458 Z M133.161,33.308 L137.7,28.565 C135.201,27.035 133.518,24.434 133.518,21.425 C133.518,15.56 139.128,13.214 144.636,13.214 C146.37,13.214 148.461,13.724 149.685,14.285 C150.195,13.877 151.062,12.755 151.419,11.99 C149.685,11.888 148.716,10.715 148.716,9.134 C148.716,7.247 150.093,5.87 152.388,5.87 C154.173,5.87 155.805,7.043 155.805,9.083 C155.805,11.684 153.51,13.622 151.47,15.203 C153.459,16.835 154.683,18.926 154.683,21.425 C154.683,26.627 149.991,29.942 143.922,29.942 C142.8,29.942 140.811,29.738 139.893,29.432 L138.516,31.625 C138.771,32.696 139.74,33.104 141.219,33.104 L148.41,33.104 C153.153,33.104 156.672,34.787 156.672,39.479 C156.672,45.344 151.113,48.353 143.259,48.353 C136.068,48.353 132.396,45.599 131.274,41.417 L135.813,37.541 C134.64,36.878 133.365,35.756 133.161,33.308 Z M138.465,38.51 L137.496,39.785 C137.496,43.814 139.791,46.109 144.177,46.109 C148.359,46.109 150.909,44.375 150.909,41.213 C150.909,39.071 149.226,38.51 146.676,38.51 L138.465,38.51 Z M139.995,20.966 C139.995,24.485 141.372,27.698 144.126,27.698 C147.237,27.698 148.206,24.128 148.206,21.68 C148.206,18.263 146.778,15.458 143.973,15.458 C141.117,15.458 139.995,18.314 139.995,20.966 Z M168.402,13.214 L168.402,17.702 C170.442,15.815 173.553,13.52 176.868,13.214 L176.613,19.538 C173.91,19.334 172.227,19.283 168.402,19.691 L168.402,34.838 L171.972,36.623 L171.972,38 L158.712,38 L158.712,36.623 L162.282,34.838 L162.282,17.906 L158.355,16.325 L158.355,14.948 L168.402,13.214 Z M192.729,34.277 L192.729,27.035 C187.782,28.31 185.334,29.534 185.334,32.135 C185.334,33.971 186.762,34.634 188.802,34.634 C190.077,34.634 191.76,34.532 192.729,34.277 Z M189.006,13.214 C195.228,13.214 198.849,15.05 198.849,19.895 L198.849,33.257 L202.011,37.439 L200.736,38.867 L192.729,36.266 C188.904,37.898 187.221,38.867 184.722,38.867 C181.509,38.867 178.704,36.98 178.704,33.104 C178.704,27.239 186.711,25.913 192.729,24.842 L192.729,20.813 C192.729,17.447 191.403,15.458 187.833,15.458 C187.119,15.458 186.048,15.56 185.334,15.866 C186.201,16.376 186.813,17.294 186.813,18.569 C186.813,20.456 185.487,21.986 183.396,21.986 C181.101,21.986 179.775,20.507 179.775,18.365 C179.775,15.407 183.09,13.214 189.006,13.214 Z M214.149,34.838 L217.719,36.623 L217.719,38 L204.459,38 L204.459,36.623 L208.029,34.838 L208.029,17.906 L204.102,16.325 L204.102,14.948 L214.149,13.214 L214.149,16.172 C217.056,14.846 220.269,13.214 222.462,13.214 C225.216,13.214 227.307,14.438 228.48,16.631 C232.458,14.846 235.62,13.214 237.813,13.214 C242.148,13.214 244.851,16.172 244.851,21.578 L244.851,34.838 L248.421,36.623 L248.421,38 L235.161,38 L235.161,36.623 L238.731,34.838 L238.731,22.649 C238.731,18.824 236.844,17.702 233.835,17.702 C232.254,17.702 230.061,18.008 229.092,18.263 C229.347,19.232 229.5,20.354 229.5,21.578 L229.5,34.838 L233.07,36.623 L233.07,38 L219.81,38 L219.81,36.623 L223.38,34.838 L223.38,22.649 C223.38,18.824 221.493,17.702 218.484,17.702 C217.209,17.702 215.73,17.855 214.149,18.161 L214.149,34.838 Z M260.151,34.838 L263.721,36.623 L263.721,38 L250.461,38 L250.461,36.623 L254.031,34.838 L254.031,17.906 L250.104,16.325 L250.104,14.948 L260.151,13.214 L260.151,16.172 C263.058,14.846 266.271,13.214 268.464,13.214 C271.218,13.214 273.309,14.438 274.482,16.631 C278.46,14.846 281.622,13.214 283.815,13.214 C288.15,13.214 290.853,16.172 290.853,21.578 L290.853,34.838 L294.423,36.623 L294.423,38 L281.163,38 L281.163,36.623 L284.733,34.838 L284.733,22.649 C284.733,18.824 282.846,17.702 279.837,17.702 C278.256,17.702 276.063,18.008 275.094,18.263 C275.349,19.232 275.502,20.354 275.502,21.578 L275.502,34.838 L279.072,36.623 L279.072,38 L265.812,38 L265.812,36.623 L269.382,34.838 L269.382,22.649 C269.382,18.824 267.495,17.702 264.486,17.702 C263.211,17.702 261.732,17.855 260.151,18.161 L260.151,34.838 Z M303.246,22.853 L312.936,22.343 C312.936,18.569 311.865,15.458 308.703,15.458 C305.643,15.458 303.501,19.028 303.246,22.853 Z M319.413,25.046 L303.093,25.046 C303.093,30.758 304.929,34.838 310.182,34.838 C312.324,34.838 315.486,34.328 318.138,33.767 L318.648,35.807 C315.741,36.98 310.998,38.867 307.989,38.867 C300.9,38.867 296.463,34.838 296.463,26.729 C296.463,19.283 301.41,13.214 309.009,13.214 C316.71,13.214 319.413,17.957 319.413,22.904 L319.413,25.046 Z" id="le-programme" fill="#FFA616"></path>
    </g>
</svg>